<?xml version="1.0" encoding="UTF-8"?>
<svg id="Ebene_1" xmlns="http://www.w3.org/2000/svg" version="1.1" xmlns:xlink="http://www.w3.org/1999/xlink" viewBox="0 0 275.3 278">
  <!-- Generator: Adobe Illustrator 30.3.0, SVG Export Plug-In . SVG Version: 2.1.3 Build 182)  -->
  <defs>
    <style>
      .st0 {
        stroke: #fff;
        stroke-width: 5.91px;
      }

      .st0, .st1 {
        fill: none;
      }

      .st2 {
        fill: #fff;
      }

      .st3 {
        fill: #526d7d;
      }

      .st4 {
        clip-path: url(#clippath);
      }
    </style>
    <clipPath id="clippath">
      <rect class="st1" x="10.7" y="18.33" width="264.59" height="246.35"/>
    </clipPath>
  </defs>
  <polygon class="st3" points="133.52 21.63 116.23 31.02 96.68 28.79 83.14 43.07 63.86 46.98 55.39 64.74 38.26 74.43 35.7 93.94 22.4 108.44 26 127.78 17.83 145.69 27.22 162.97 24.99 182.52 39.27 196.06 43.18 215.35 60.95 223.81 70.63 240.94 90.14 243.5 104.64 256.8 123.99 253.21 141.89 261.37 159.18 251.98 178.72 254.21 192.26 239.93 211.55 236.02 220.01 218.25 237.14 208.57 239.7 189.06 253 174.56 249.41 155.22 257.57 137.31 248.18 120.03 250.41 100.48 236.14 86.94 232.22 67.65 214.46 59.19 204.77 42.06 185.26 39.5 170.76 26.2 151.42 29.79 133.52 21.63"/>
  <g class="st4">
    <polygon class="st0" points="133.52 21.63 116.23 31.02 96.68 28.79 83.14 43.07 63.86 46.98 55.39 64.74 38.26 74.43 35.7 93.94 22.4 108.44 26 127.78 17.83 145.69 27.22 162.97 24.99 182.52 39.27 196.06 43.18 215.35 60.95 223.81 70.63 240.94 90.14 243.5 104.64 256.8 123.99 253.21 141.89 261.37 159.18 251.98 178.72 254.21 192.26 239.93 211.55 236.02 220.01 218.25 237.14 208.57 239.7 189.06 253 174.56 249.41 155.22 257.57 137.31 248.18 120.03 250.41 100.48 236.14 86.94 232.22 67.65 214.46 59.19 204.77 42.06 185.26 39.5 170.76 26.2 151.42 29.79 133.52 21.63"/>
  </g>
  <g>
    <path class="st2" d="M93.35,96.92l-3.21-22.88,2.92-.41,1.39,9.89,8.02-1.13-1.39-9.89,2.92-.41,3.21,22.88-2.92.41-1.47-10.46-8.02,1.13,1.47,10.46-2.92.41Z"/>
    <path class="st2" d="M112.3,94.26l-3.21-22.88,11.79-1.66.36,2.53-8.87,1.25,1.03,7.35,8.24-1.16.36,2.54-8.24,1.16,1.11,7.92,9.06-1.27.36,2.54-11.98,1.68Z"/>
    <path class="st2" d="M125.05,69.13l2.92-.41,2.06,14.64c.7,5.01,2.4,6.06,5.16,5.67,2.76-.39,4.1-1.87,3.4-6.87l-2.06-14.64,2.92-.41,2.04,14.51c.89,6.34-1.1,9.17-5.95,9.85-4.85.68-7.54-1.49-8.43-7.83l-2.04-14.51Z"/>
    <path class="st2" d="M158.1,64.49l.36,2.53-6.02.85,2.86,20.34-2.92.41-2.86-20.34-6.02.85-.36-2.53,14.96-2.1Z"/>
    <path class="st2" d="M165.06,86.84l-3.21-22.88,11.79-1.66.36,2.53-8.87,1.25,1.03,7.35,8.24-1.16.36,2.54-8.24,1.16,1.11,7.92,9.06-1.27.36,2.54-11.98,1.68Z"/>
  </g>
  <g>
    <path class="st2" d="M72.26,131.71l.09.67c.44,3.11,2.54,3.81,4.41,3.55,2.31-.32,3.95-1.56,3.57-4.28-.71-5.07-10.9-3.06-11.87-9.93-.57-4.06,2.01-6.62,5.85-7.15,4.18-.59,6.81,1.11,7.28,5.79l-3.04.43c-.32-2.51-1.34-4.04-4.1-3.66-1.74.25-3.39,1.38-3.04,3.85.71,5.04,10.87,2.87,11.89,10.12.68,4.82-2.43,6.84-6.2,7.37-6.74,1.01-7.47-4.15-7.71-6.35l2.88-.41Z"/>
    <path class="st2" d="M96.39,118.37c-.15-1.3-.43-2.59-1.13-3.23-.71-.64-2.1-.71-2.71-.62-2.41.34-3.15,1.93-3.21,2.26-.06.27-.55.92,0,4.85l.86,6.12c.79,5.61,2.72,6.02,4.97,5.7.89-.12,3.54-.82,2.94-5.29l3.01-.42c1.14,7.21-3.96,7.92-5.45,8.13-2.85.4-7.25.83-8.5-8.05l-.91-6.46c-.91-6.46,1.69-8.7,6.18-9.33,4.53-.64,6.6,1.46,6.94,5.94l-3.01.42Z"/>
    <path class="st2" d="M106.46,133.85l-3.22-22.88,2.92-.41,1.39,9.89,8.02-1.13-1.39-9.89,2.92-.41,3.22,22.88-2.92.41-1.47-10.46-8.02,1.13,1.47,10.46-2.92.41Z"/>
    <path class="st2" d="M124.1,122.84l-1.06-7.51c-.64-4.56,1.29-7.81,6.14-8.49,4.85-.68,7.6,1.9,8.24,6.47l1.05,7.51c.89,6.34-1.1,9.17-5.95,9.85-4.85.68-7.54-1.49-8.43-7.83ZM135.53,121.37l-1.09-7.73c-.67-4.78-3.99-4.48-4.91-4.35-.92.13-4.19.75-3.52,5.53l1.09,7.73c.7,5.01,2.34,6.07,5.1,5.68,2.76-.39,4.04-1.86,3.33-6.87Z"/>
    <path class="st2" d="M157.08,103.41l3.21,22.88-3.99.56-11.82-18.57h-.06s2.79,19.84,2.79,19.84l-2.6.37-3.21-22.88,4.12-.58,11.66,18.33h.06s-2.75-19.59-2.75-19.59l2.6-.37Z"/>
    <path class="st2" d="M174.57,100.95l3.71-.52,10.66,21.83-3.26.46-2.41-5.22-8.84,1.24-.95,5.69-2.95.41,4.04-23.9ZM176.72,103.4h-.06s-1.87,12.71-1.87,12.71l7.32-1.03-5.39-11.68Z"/>
    <path class="st2" d="M205.24,96.64l3.21,22.88-3.99.56-11.82-18.57h-.06s2.79,19.84,2.79,19.84l-2.6.37-3.22-22.88,4.12-.58,11.66,18.33h.06s-2.75-19.59-2.75-19.59l2.6-.37Z"/>
  </g>
  <g>
    <path class="st2" d="M90.76,174.84l-2.72.38-3.22-22.88,4.72-.66,8.46,18.39h.06s3.13-20.03,3.13-20.03l4.82-.68,3.21,22.88-2.92.41-2.86-20.34h-.06s-3.54,21.25-3.54,21.25l-2.76.39-9.13-19.46h-.06s2.86,20.35,2.86,20.35Z"/>
    <path class="st2" d="M112.97,163.19l-1.06-7.51c-.64-4.56,1.29-7.81,6.14-8.49,4.85-.68,7.6,1.9,8.24,6.46l1.05,7.51c.89,6.34-1.1,9.17-5.95,9.85-4.85.68-7.54-1.49-8.44-7.83ZM124.39,161.71l-1.09-7.73c-.67-4.78-3.99-4.48-4.91-4.35-.92.13-4.19.75-3.52,5.53l1.09,7.73c.7,5.01,2.34,6.07,5.1,5.68,2.76-.39,4.04-1.86,3.33-6.87Z"/>
    <path class="st2" d="M134.85,157.91l1.48,10.52-2.92.41-3.21-22.88,7.89-1.11c4.06-.57,5.88,2.08,6.28,4.93.38,2.69-.82,4.96-3.45,5.82v.06c2.7.04,3.77.79,4.58,5.37.17.98.99,4.51,1.63,5.88l-3.04.43c-1.05-1.47-1.28-4.47-1.96-7.48-.61-2.76-2.88-2.57-3.86-2.43l-3.42.48ZM134.49,155.38l4.37-.61c2.09-.29,2.85-2.24,2.57-4.24-.23-1.65-1.31-3.37-3.56-3.05l-4.4.62,1.02,7.29Z"/>
    <path class="st2" d="M159.89,148.03c-.38-2.69-1.69-3.99-4.64-3.58-.92.13-4.19.75-3.52,5.53l1.09,7.73c.7,5.01,2.34,6.07,5.1,5.68,2.09-.29,3.41-1.06,3.95-1.59l-.96-6.84-4.21.59-.36-2.54,7.13-1,1.56,11.12c-1.73,1.28-3.81,2.28-6.76,2.7-4.85.68-7.54-1.49-8.43-7.83l-1.06-7.51c-.64-4.56,1.29-7.81,6.14-8.49,4.94-.7,7.54.78,8.02,5.59l-3.04.43Z"/>
    <path class="st2" d="M170.26,163.67l-3.21-22.88,11.79-1.66.36,2.53-8.87,1.25,1.03,7.35,8.24-1.16.36,2.54-8.24,1.16,1.11,7.92,9.06-1.27.36,2.54-11.98,1.68Z"/>
    <path class="st2" d="M198.93,136.31l3.22,22.88-3.99.56-11.82-18.57h-.06s2.79,19.84,2.79,19.84l-2.6.37-3.22-22.88,4.12-.58,11.66,18.33h.06s-2.75-19.59-2.75-19.59l2.6-.37Z"/>
  </g>
  <g>
    <path class="st2" d="M90.61,196.54c-.38-2.69-1.69-3.99-4.64-3.58-.92.13-4.19.75-3.52,5.53l1.09,7.73c.7,5.01,2.34,6.07,5.1,5.68,2.09-.29,3.4-1.06,3.94-1.59l-.96-6.84-4.21.59-.36-2.54,7.13-1,1.56,11.12c-1.73,1.28-3.82,2.28-6.76,2.7-4.85.68-7.54-1.49-8.44-7.83l-1.06-7.51c-.64-4.56,1.29-7.81,6.14-8.49,4.94-.69,7.54.78,8.02,5.59l-3.04.43Z"/>
    <path class="st2" d="M100.98,212.18l-3.22-22.88,11.79-1.66.36,2.53-8.87,1.25,1.03,7.35,8.24-1.16.36,2.54-8.24,1.16,1.11,7.92,9.06-1.27.36,2.54-11.98,1.68Z"/>
    <path class="st2" d="M113.93,187.03l7.03-.99c2.92-.41,5.15.34,6.64,2.62,1.19,1.8,1.93,6.35,2.03,7.08.69,4.88.64,7.76-.1,9.42-.96,2.14-3.13,3.45-7.13,4.01l-5.26.74-3.22-22.88ZM119.7,206.96l2.76-.39c4.06-.57,5.33-2.3,4.58-7.62l-.65-4.62c-.65-4.63-2.32-6.14-5.36-5.71l-3.83.54,2.5,17.81Z"/>
    <path class="st2" d="M138.14,183.63l3.71-.52,10.66,21.83-3.26.46-2.41-5.22-8.84,1.24-.95,5.69-2.95.41,4.04-23.9ZM140.29,186.07h-.06s-1.87,12.71-1.87,12.71l7.32-1.03-5.39-11.68Z"/>
    <path class="st2" d="M163.3,186.52c-.15-1.3-.43-2.59-1.13-3.23-.7-.64-2.1-.71-2.71-.62-2.41.34-3.15,1.93-3.2,2.26-.06.27-.55.92,0,4.85l.86,6.12c.79,5.61,2.72,6.02,4.97,5.7.89-.12,3.54-.82,2.94-5.29l3.01-.42c1.14,7.21-3.96,7.92-5.45,8.13-2.85.4-7.25.83-8.5-8.05l-.91-6.46c-.91-6.46,1.69-8.7,6.18-9.33,4.53-.64,6.6,1.46,6.94,5.94l-3.01.42Z"/>
    <path class="st2" d="M173.36,202.01l-3.22-22.88,2.92-.41,1.39,9.89,8.02-1.13-1.39-9.89,2.92-.41,3.21,22.88-2.92.41-1.47-10.46-8.02,1.13,1.47,10.46-2.92.41Z"/>
    <path class="st2" d="M202.78,174.54l.36,2.53-6.02.85,2.86,20.34-2.92.41-2.86-20.34-6.02.85-.36-2.53,14.96-2.1Z"/>
    <path class="st2" d="M212.25,190.63l-.51-3.61c-.39-2.76,3.19-5.13,2.61-9.25-.2-1.39-1.13-3.01-2.81-2.77-2.28.32-1.99,3.09-1.73,4.73l-2.98.42c-.71-3.88.38-6.71,4.6-7.3,3.26-.46,5.46,1.37,5.91,4.57.74,5.26-3.24,7.5-2.91,9.91l.41,2.95-2.6.36ZM215.85,196.04l-2.98.42-.46-3.3,2.98-.42.46,3.3Z"/>
  </g>
</svg>