<?xml version="1.0" encoding="UTF-8"?>
<svg xmlns="http://www.w3.org/2000/svg" version="1.1" viewBox="214.48 0 215.05 67">
  <defs>
    <style>
      .st0 { fill: #cbcccc; }
      .st1 { fill: none; stroke: #7f7f7f; stroke-miterlimit: 10; stroke-width: 1.1px; }
      .st3 { fill: #009fe3; }
      .st4 { fill: #009ee3; }
      .st5 { fill: #625e5d; }
    </style>
  </defs>
  <g>
    <g>
      <polygon class="st3" points="287.82 26.45 273.16 32.32 273.16 20.59 287.82 26.45"/>
      <polygon class="st4" points="248.73 32.32 234.06 26.45 260.94 15.7 260.94 27.43 248.73 32.32"/>
      <polygon class="st0" points="248.73 46.01 231.62 39.16 231.62 27.43 248.73 34.27 248.73 46.01"/>
      <polygon class="st0" points="290.26 39.16 290.26 27.43 260.94 39.16 260.94 50.89 290.26 39.16"/>
    </g>
    <g>
      <g>
        <path class="st5" d="M316.19,20.58v10.67h-1.77v-4.55h-4.77v4.55h-1.78v-10.67h1.78v4.69h4.77v-4.69h1.77Z"/>
        <path class="st5" d="M327.24,24.96v1.92c0,2.63-1.76,4.53-4.41,4.53s-4.31-1.91-4.31-4.53v-1.92c0-2.61,1.71-4.53,4.31-4.53s4.42,1.92,4.42,4.53h0ZM325.46,26.88v-1.94c0-1.77-1-3.05-2.64-3.05s-2.53,1.27-2.53,3.05v1.94c0,1.8.95,3.07,2.54,3.07s2.63-1.27,2.63-3.07h0Z"/>
        <path class="st5" d="M335.68,27.79h1.78c-.21,2.25-1.62,3.61-4.09,3.61s-4.14-1.8-4.14-4.47v-2.03c0-2.64,1.64-4.48,4.14-4.48s3.86,1.31,4.09,3.65h-1.78c-.18-1.49-.81-2.23-2.32-2.23s-2.37,1.25-2.37,3.03v2.05c0,1.81.87,3.05,2.37,3.05s2.12-.72,2.31-2.19h0Z"/>
        <path class="st5" d="M348.09,20.58v10.67h-1.77v-4.55h-4.77v4.55h-1.78v-10.67h1.78v4.69h4.77v-4.69h1.77Z"/>
        <path class="st5" d="M356.75,28.51c0-.9-.53-1.41-2.23-1.86-2.44-.64-3.72-1.57-3.72-3.27s1.53-2.96,3.82-2.96,3.91,1.41,3.91,3.26h-1.78c0-1.11-.75-1.84-2.15-1.84-1.32,0-2.02.62-2.02,1.53,0,.42.18.75.56,1.01.37.26,1,.52,1.9.76,2.34.64,3.5,1.63,3.5,3.35,0,1.81-1.52,2.91-3.87,2.91s-4.2-1.21-4.2-3.35h1.78c0,1.32.95,1.94,2.42,1.94,1.34,0,2.09-.55,2.09-1.48h0Z"/>
        <path class="st5" d="M366.84,27.79h1.78c-.21,2.25-1.62,3.61-4.09,3.61s-4.14-1.8-4.14-4.47v-2.03c0-2.64,1.64-4.48,4.14-4.48s3.86,1.31,4.1,3.65h-1.78c-.18-1.49-.81-2.23-2.32-2.23s-2.37,1.25-2.37,3.03v2.05c0,1.81.87,3.05,2.37,3.05s2.12-.72,2.31-2.19h0Z"/>
        <path class="st5" d="M379.24,20.58v10.67h-1.77v-4.55h-4.78v4.55h-1.78v-10.67h1.78v4.69h4.78v-4.69h1.77Z"/>
        <path class="st5" d="M388.5,20.58h1.78v7.15c0,2.41-1.64,3.67-4.18,3.67s-4.1-1.27-4.1-3.67v-7.15h1.78v7.15c0,1.53.88,2.25,2.32,2.25s2.4-.73,2.4-2.25v-7.15Z"/>
        <path class="st5" d="M394.79,20.58v9.25h5.1v1.42h-6.88v-10.67h1.78Z"/>
        <path class="st5" d="M408.48,25.02v1.43h-4.67v3.38h5.41v1.42h-7.19v-10.67h7.14v1.43h-5.36v3.01h4.67Z"/>
      </g>
      <g>
        <path class="st5" d="M316.35,42.53v1.92c0,2.63-1.77,4.53-4.41,4.53s-4.31-1.91-4.31-4.53v-1.92c0-2.61,1.71-4.53,4.31-4.53s4.42,1.92,4.42,4.53h0ZM314.57,44.45v-1.93c0-1.77-1-3.05-2.63-3.05s-2.54,1.27-2.54,3.05v1.93c0,1.8.95,3.07,2.54,3.07s2.63-1.27,2.63-3.07h0Z"/>
        <path class="st5" d="M324.5,46.08c0-.9-.53-1.41-2.23-1.86-2.44-.64-3.72-1.57-3.72-3.27s1.53-2.96,3.82-2.96,3.91,1.41,3.91,3.26h-1.78c0-1.11-.75-1.84-2.15-1.84-1.32,0-2.02.61-2.02,1.53,0,.42.18.75.56,1.01.37.26,1,.52,1.9.76,2.33.64,3.5,1.63,3.5,3.35,0,1.81-1.51,2.91-3.87,2.91s-4.2-1.21-4.2-3.35h1.78c0,1.32.95,1.94,2.42,1.94,1.34,0,2.09-.55,2.09-1.48h0Z"/>
        <path class="st5" d="M336.98,38.16v10.67h-1.77l-4.75-7.82h-.02v7.82h-1.78v-10.67h1.78l4.75,7.81h.02v-7.81h1.77Z"/>
        <path class="st5" d="M346.44,48.82l-.87-2.55h-4.11l-.88,2.55h-1.81l3.92-10.67h1.69l3.86,10.67h-1.81ZM343.51,40.31l-1.56,4.54h3.13l-1.55-4.54h-.02Z"/>
        <path class="st5" d="M354.09,48.82h-4.05v-10.67h3.57c2.39,0,3.74.94,3.74,2.91,0,.97-.57,1.76-1.54,2.13v.02c1.26.27,1.94,1.28,1.94,2.54,0,2.05-1.31,3.06-3.66,3.06h0ZM351.82,39.58v3.06h1.98c1.12,0,1.77-.51,1.77-1.5,0-1.08-.64-1.56-1.96-1.56h-1.79ZM354.27,43.98h-2.45v3.43h2.27c1.23,0,1.89-.59,1.89-1.64,0-1.15-.52-1.79-1.71-1.79h0Z"/>
        <path class="st5" d="M367.83,41.28c0,1.31-.64,2.26-1.8,2.78l2.42,4.63v.14h-1.95l-2.13-4.3h-2.33v4.3h-1.78v-10.67h3.85c2.42,0,3.74,1.09,3.74,3.12h0ZM362.03,39.58v3.51h2.07c1.31,0,1.95-.62,1.95-1.76s-.62-1.75-1.96-1.75h-2.07Z"/>
        <path class="st5" d="M376.85,38.16h1.78v7.15c0,2.41-1.64,3.67-4.18,3.67s-4.1-1.27-4.1-3.67v-7.15h1.78v7.15c0,1.53.88,2.25,2.32,2.25s2.4-.72,2.4-2.25v-7.15ZM373.75,35.53v1.57h-1.76v-1.57h1.76ZM377.01,35.53v1.57h-1.77v-1.57h1.77Z"/>
        <path class="st5" d="M387.49,45.37h1.78c-.21,2.25-1.62,3.61-4.09,3.61s-4.14-1.8-4.14-4.47v-2.03c0-2.64,1.64-4.48,4.14-4.48s3.86,1.31,4.09,3.65h-1.78c-.18-1.49-.81-2.23-2.31-2.23s-2.37,1.25-2.37,3.03v2.04c0,1.81.86,3.05,2.37,3.05s2.12-.72,2.31-2.19h0Z"/>
        <path class="st5" d="M397.87,48.82l-3.43-4.69-1.09,1.21v3.48h-1.78v-10.67h1.78v4.93l4.2-4.93h2.11l-4,4.62,4.47,6.04h-2.25Z"/>
      </g>
    </g>
  </g>
  <polyline class="st1" points="214.48 66.3 428.39 66.3 428.39 0"/>
</svg>
