<?xml version="1.0" encoding="UTF-8"?>
<svg xmlns="http://www.w3.org/2000/svg" version="1.1" viewBox="0 0 283.46 85.04">
  <!-- Generator: Adobe Illustrator 30.3.0, SVG Export Plug-In . SVG Version: 2.1.3 Build 182)  -->
  <defs>
    <style>
      .st0 {
        fill: #009fe3;
      }

      .st1 {
        fill: #456242;
      }

      .st2 {
        fill: #575756;
      }

      .st3 {
        display: none;
      }

      .st4, .st5 {
        fill: #00a04d;
      }

      .st5 {
        opacity: .3;
      }

      .st6 {
        fill: #c6c6c6;
      }
    </style>
  </defs>
  <g id="rz01_x5F_alt" class="st3">
    <g>
      <g>
        <g>
          <g>
            <path class="st2" d="M59.06,64.24h-1.52v-3.89h-4.09v3.89h-1.52v-9.13h1.52v4.01h4.09v-4.01h1.52v9.13Z"/>
            <path class="st2" d="M68.56,60.49c0,1.12-.35,2.04-1.05,2.78-.7.73-1.61,1.1-2.73,1.1s-1.99-.37-2.67-1.1c-.68-.73-1.03-1.66-1.03-2.78v-1.64c0-1.11.34-2.04,1.03-2.77.68-.74,1.57-1.1,2.66-1.1s2.03.37,2.73,1.1c.7.74,1.05,1.66,1.05,2.77v1.64ZM67.04,58.84c0-.76-.2-1.39-.61-1.87-.41-.49-.96-.73-1.65-.73s-1.2.24-1.59.73c-.39.49-.58,1.11-.58,1.87v1.66c0,.77.19,1.4.58,1.89.39.49.92.74,1.59.74s1.25-.25,1.65-.73c.4-.49.61-1.12.61-1.89v-1.66Z"/>
            <path class="st2" d="M77.26,61.21v.04c.03.92-.27,1.68-.89,2.25-.62.58-1.45.87-2.51.87s-1.93-.36-2.6-1.08c-.67-.72-1-1.63-1-2.75v-1.74c0-1.11.33-2.03.99-2.75.66-.72,1.51-1.08,2.57-1.08s1.93.28,2.55.85c.62.57.92,1.33.91,2.29v.04h-1.49c0-.62-.17-1.09-.5-1.44-.33-.34-.82-.51-1.47-.51s-1.12.25-1.48.74c-.37.49-.55,1.11-.55,1.85v1.75c0,.75.19,1.37.56,1.87.37.49.88.74,1.52.74s1.11-.17,1.44-.51.49-.81.49-1.43h1.47Z"/>
            <path class="st2" d="M86.52,64.24h-1.52v-3.89h-4.09v3.89h-1.52v-9.13h1.52v4.01h4.09v-4.01h1.52v9.13Z"/>
            <path class="st2" d="M93.97,61.88c0-.38-.14-.69-.42-.93s-.78-.46-1.5-.65c-1.02-.27-1.81-.62-2.36-1.06-.55-.44-.82-1.02-.82-1.73s.3-1.34.91-1.82,1.39-.71,2.35-.71,1.81.27,2.42.81c.61.54.9,1.19.88,1.95v.04h-1.47c0-.47-.16-.85-.48-1.14-.32-.29-.77-.44-1.36-.44-.56,0-.98.12-1.28.36-.3.24-.45.55-.45.94,0,.35.16.63.49.86.32.23.86.45,1.61.65.98.26,1.73.63,2.24,1.09.51.46.77,1.06.77,1.77,0,.76-.3,1.37-.91,1.82-.61.45-1.41.67-2.4.67s-1.79-.25-2.51-.76c-.72-.51-1.07-1.2-1.05-2.08v-.04h1.48c0,.56.19.97.58,1.25.38.27.88.41,1.5.41.56,0,1-.11,1.32-.34.31-.23.47-.53.47-.92Z"/>
            <path class="st2" d="M104.27,61.21v.04c.03.92-.27,1.68-.89,2.25-.62.58-1.45.87-2.51.87s-1.93-.36-2.6-1.08c-.67-.72-1-1.63-1-2.75v-1.74c0-1.11.33-2.03.99-2.75.66-.72,1.51-1.08,2.57-1.08s1.93.28,2.55.85c.62.57.92,1.33.91,2.29v.04h-1.49c0-.62-.17-1.09-.5-1.44-.33-.34-.82-.51-1.47-.51s-1.12.25-1.48.74c-.37.49-.55,1.11-.55,1.85v1.75c0,.75.19,1.37.56,1.87.37.49.88.74,1.52.74s1.11-.17,1.44-.51.49-.81.49-1.43h1.47Z"/>
            <path class="st2" d="M113.67,64.24h-1.52v-3.89h-4.09v3.89h-1.52v-9.13h1.52v4.01h4.09v-4.01h1.52v9.13Z"/>
            <path class="st2" d="M123.11,55.1v6.12c0,1.01-.33,1.79-.99,2.33-.66.54-1.52.81-2.59.81s-1.89-.27-2.54-.82c-.65-.54-.97-1.32-.97-2.33v-6.12h1.52v6.12c0,.64.18,1.12.54,1.44.36.32.84.48,1.45.48s1.13-.16,1.5-.48c.37-.32.56-.8.56-1.44v-6.12h1.52Z"/>
            <path class="st2" d="M127.08,63.01h4.2v1.22h-5.72v-9.13h1.52v7.91Z"/>
            <path class="st2" d="M138.4,60.13h-4v2.89h4.63v1.22h-6.16v-9.13h6.12v1.22h-4.59v2.58h4v1.22Z"/>
          </g>
          <g>
            <path class="st2" d="M152.11,60.49c0,1.12-.35,2.04-1.05,2.78-.7.73-1.61,1.1-2.73,1.1s-1.99-.37-2.67-1.1c-.68-.73-1.03-1.66-1.03-2.78v-1.64c0-1.11.34-2.04,1.03-2.77.68-.74,1.57-1.1,2.66-1.1s2.03.37,2.73,1.1c.7.74,1.05,1.66,1.05,2.77v1.64ZM150.59,58.84c0-.76-.2-1.39-.61-1.87-.41-.49-.96-.73-1.65-.73s-1.2.24-1.59.73c-.39.49-.58,1.11-.58,1.87v1.66c0,.77.19,1.4.58,1.89.39.49.92.74,1.59.74s1.25-.25,1.65-.73c.4-.49.61-1.12.61-1.89v-1.66Z"/>
            <path class="st2" d="M159.41,61.88c0-.38-.14-.69-.42-.93-.28-.24-.78-.46-1.5-.65-1.02-.27-1.81-.62-2.35-1.06-.55-.44-.82-1.02-.82-1.73s.3-1.34.91-1.82,1.39-.71,2.35-.71,1.81.27,2.42.81c.61.54.9,1.19.88,1.95v.04h-1.47c0-.47-.16-.85-.48-1.14-.32-.29-.77-.44-1.36-.44-.56,0-.98.12-1.28.36-.3.24-.45.55-.45.94,0,.35.16.63.49.86.32.23.86.45,1.61.65.98.26,1.73.63,2.24,1.09.51.46.77,1.06.77,1.77,0,.76-.3,1.37-.91,1.82-.61.45-1.41.67-2.4.67s-1.79-.25-2.51-.76c-.72-.51-1.07-1.2-1.05-2.08v-.04h1.48c0,.56.19.97.58,1.25.38.27.88.41,1.5.41.56,0,1-.11,1.32-.34.31-.23.47-.53.47-.92Z"/>
            <path class="st2" d="M170.49,64.24h-1.52l-4.05-6.67h-.04v6.67h-1.52v-9.13h1.52l4.05,6.66h.04v-6.66h1.52v9.13Z"/>
            <path class="st2" d="M178.34,62.1h-3.58l-.73,2.13h-1.54l3.36-9.13h1.44l3.32,9.13h-1.55l-.72-2.13ZM175.2,60.83h2.7l-1.32-3.9h-.04l-1.34,3.9Z"/>
            <path class="st2" d="M182.62,64.24v-9.13h3.04c1.01,0,1.8.21,2.37.62.57.42.85,1.04.85,1.87,0,.41-.12.78-.36,1.11-.24.33-.57.57-.99.73.54.12.96.38,1.25.78.29.4.44.87.44,1.4,0,.86-.28,1.51-.84,1.95-.56.45-1.33.67-2.32.67h-3.44ZM184.15,58.95h1.68c.47,0,.85-.11,1.12-.34.27-.22.41-.54.41-.95,0-.45-.14-.79-.43-1.01-.29-.22-.71-.33-1.27-.33h-1.51v2.62ZM184.15,60.08v2.93h1.92c.53,0,.93-.12,1.22-.36.28-.24.43-.59.43-1.04,0-.48-.12-.86-.36-1.13-.24-.27-.61-.4-1.12-.4h-2.09Z"/>
            <path class="st2" d="M193.21,60.45v3.79h-1.52v-9.13h3.37c1.02,0,1.81.23,2.36.69.56.46.83,1.12.83,1.97,0,.47-.12.88-.37,1.22s-.6.61-1.07.82c.51.16.88.43,1.11.8.23.37.34.83.34,1.36v.76c0,.27.03.53.1.78s.18.45.34.58v.14h-1.57c-.17-.14-.27-.36-.32-.65-.05-.3-.07-.59-.07-.87v-.73c0-.47-.13-.84-.4-1.12-.27-.28-.64-.41-1.1-.41h-2.03ZM193.21,59.22h1.77c.61,0,1.06-.12,1.34-.35.28-.23.42-.59.42-1.07s-.14-.82-.41-1.08c-.28-.26-.7-.39-1.26-.39h-1.85v2.9Z"/>
            <path class="st2" d="M207.94,55.1v6.12c0,1.01-.33,1.79-.99,2.33-.66.54-1.52.81-2.59.81s-1.89-.27-2.54-.82c-.65-.54-.97-1.32-.97-2.33v-6.12h1.52v6.12c0,.64.18,1.12.54,1.44.36.32.84.48,1.45.48s1.13-.16,1.5-.48c.37-.32.56-.8.56-1.44v-6.12h1.52ZM203.63,54.2h-1.51v-1.28h1.51v1.28ZM206.67,54.2h-1.52v-1.28h1.52v1.28Z"/>
            <path class="st2" d="M217.22,61.21v.04c.03.92-.27,1.68-.89,2.25-.62.58-1.45.87-2.51.87s-1.93-.36-2.6-1.08c-.67-.72-1-1.63-1-2.75v-1.74c0-1.11.33-2.03.99-2.75.66-.72,1.51-1.08,2.57-1.08s1.93.28,2.55.85c.62.57.92,1.33.91,2.29v.04h-1.49c0-.62-.17-1.09-.5-1.44-.33-.34-.82-.51-1.47-.51s-1.12.25-1.48.74c-.37.49-.55,1.11-.55,1.85v1.75c0,.75.19,1.37.56,1.87.37.49.88.74,1.52.74s1.11-.17,1.44-.51.49-.81.49-1.43h1.47Z"/>
            <path class="st2" d="M222.23,60.29h-1.05v3.95h-1.52v-9.13h1.52v3.87h.87l2.87-3.87h1.81l-3.32,4.36,3.58,4.77h-1.86l-2.88-3.95Z"/>
          </g>
        </g>
        <g>
          <path class="st2" d="M83.75,71.93v3.1c0,.5-.15.88-.46,1.14-.3.26-.7.39-1.19.39s-.87-.13-1.17-.4c-.3-.26-.45-.64-.45-1.14v-3.1h.38v3.09c0,.39.12.69.35.9.23.21.53.32.9.32s.68-.11.92-.32c.24-.21.35-.51.35-.9v-3.09h.37Z"/>
          <path class="st2" d="M88.74,76.5h-.37l-2.59-3.93h-.02v3.93h-.38v-4.57h.38l2.59,3.92h.02v-3.92h.37v4.57Z"/>
          <path class="st2" d="M90.91,76.5h-.38v-4.57h.38v4.57Z"/>
          <path class="st2" d="M93.98,75.73l.09.3h.02l.09-.3,1.37-3.79h.41l-1.7,4.57h-.35l-1.7-4.57h.41l1.37,3.79Z"/>
          <path class="st2" d="M99.75,74.29h-2.2v1.89h2.52v.32h-2.89v-4.57h2.88v.32h-2.5v1.72h2.2v.32Z"/>
          <path class="st2" d="M101.75,74.43v2.06h-.37v-4.56h1.55c.49,0,.86.11,1.13.32.26.21.39.53.39.94,0,.24-.07.46-.21.65-.14.19-.34.33-.59.42.28.07.49.2.61.38.12.18.19.41.19.69v.43c0,.14.02.27.05.38.03.11.09.21.17.28v.08h-.38c-.08-.08-.13-.18-.16-.32-.03-.14-.05-.28-.05-.42v-.42c0-.28-.09-.5-.27-.66-.18-.16-.43-.24-.76-.24h-1.28ZM101.75,74.11h1.13c.41,0,.71-.08.9-.25.19-.17.29-.39.29-.67,0-.3-.09-.53-.28-.69-.19-.16-.48-.24-.86-.24h-1.17v1.86Z"/>
          <path class="st2" d="M108.73,75.38c0-.25-.09-.45-.28-.61-.19-.16-.51-.3-.97-.42-.5-.12-.88-.29-1.14-.49-.26-.2-.39-.47-.39-.81s.14-.63.43-.85c.29-.22.66-.33,1.11-.33s.85.13,1.14.39c.29.26.43.58.42.96v.02h-.35c0-.3-.11-.56-.32-.75-.22-.2-.51-.29-.88-.29s-.65.08-.86.24c-.21.16-.31.37-.31.61s.1.42.29.58c.19.15.52.29.98.41.49.13.86.29,1.12.51.26.21.38.5.38.84s-.15.65-.45.87c-.3.21-.68.32-1.14.32s-.85-.11-1.19-.34c-.34-.23-.5-.56-.49-1v-.02h.35c0,.35.13.62.4.79.27.17.58.26.94.26s.65-.08.88-.24c.22-.16.33-.37.33-.63Z"/>
          <path class="st2" d="M110.94,76.5h-.38v-4.57h.38v4.57Z"/>
          <path class="st2" d="M115.7,72.25h-1.57v4.25h-.38v-4.25h-1.57v-.32h3.52v.32Z"/>
          <path class="st2" d="M118.35,74.47l1.41-2.54h.44l-1.66,2.9v1.67h-.37v-1.69l-1.65-2.88h.44l1.4,2.54Z"/>
          <path class="st2" d="M126.81,74.59c0,.59-.16,1.07-.48,1.43-.32.36-.76.54-1.3.54s-.96-.18-1.28-.54c-.32-.36-.48-.84-.48-1.43v-.74c0-.59.16-1.06.48-1.43.32-.37.74-.55,1.28-.55s.98.18,1.3.55c.32.37.49.84.49,1.43v.74ZM126.44,73.84c0-.49-.12-.89-.38-1.19-.25-.3-.6-.45-1.04-.45s-.77.15-1.02.45c-.24.3-.36.7-.36,1.19v.75c0,.5.12.9.37,1.2.24.3.58.45,1.02.45s.79-.15,1.04-.45c.25-.3.37-.7.37-1.2v-.75Z"/>
          <path class="st2" d="M130.91,74.36h-2.22v2.14h-.37v-4.57h2.91v.32h-2.54v1.78h2.22v.32Z"/>
          <path class="st2" d="M137.05,75.22h-2.09l-.47,1.27h-.39l1.73-4.57h.35l1.72,4.57h-.39l-.47-1.27ZM135.09,74.89h1.84l-.91-2.47h-.02l-.92,2.47Z"/>
          <path class="st2" d="M139.49,74.6v1.9h-.37v-4.57h1.57c.48,0,.85.12,1.11.37.26.24.39.57.39.97s-.13.73-.39.97c-.26.24-.63.36-1.11.36h-1.2ZM139.49,74.28h1.2c.38,0,.66-.1.85-.29.19-.19.28-.43.28-.72s-.09-.54-.28-.73c-.19-.19-.47-.29-.85-.29h-1.2v2.03Z"/>
          <path class="st2" d="M143.98,74.6v1.9h-.37v-4.57h1.57c.48,0,.85.12,1.11.37.26.24.39.57.39.97s-.13.73-.39.97c-.26.24-.63.36-1.11.36h-1.2ZM143.98,74.28h1.2c.38,0,.66-.1.85-.29.19-.19.28-.43.28-.72s-.09-.54-.28-.73c-.19-.19-.47-.29-.85-.29h-1.2v2.03Z"/>
          <path class="st2" d="M148.47,76.18h2.26v.32h-2.63v-4.57h.38v4.25Z"/>
          <path class="st2" d="M152.45,76.5h-.38v-4.57h.38v4.57Z"/>
          <path class="st2" d="M156.81,74.29h-2.2v1.89h2.52v.32h-2.89v-4.57h2.88v.32h-2.5v1.72h2.2v.32Z"/>
          <path class="st2" d="M158.45,76.5v-4.57h1.33c.56,0,1.02.19,1.38.56.36.37.55.85.55,1.43v.59c0,.59-.18,1.06-.55,1.43s-.82.55-1.38.55h-1.33ZM158.82,72.25v3.93h.95c.45,0,.82-.16,1.12-.47.29-.32.44-.71.44-1.2v-.59c0-.48-.15-.87-.44-1.19-.29-.32-.66-.47-1.11-.47h-.95Z"/>
          <path class="st2" d="M167.85,75.38c0-.25-.09-.45-.28-.61-.19-.16-.51-.3-.97-.42-.5-.12-.88-.29-1.14-.49-.26-.2-.39-.47-.39-.81s.14-.63.43-.85c.29-.22.66-.33,1.11-.33s.85.13,1.14.39c.29.26.43.58.42.96v.02h-.35c0-.3-.11-.56-.32-.75-.22-.2-.51-.29-.88-.29s-.65.08-.86.24c-.21.16-.31.37-.31.61s.1.42.29.58c.19.15.52.29.98.41.49.13.86.29,1.12.51.26.21.38.5.38.84s-.15.65-.45.87c-.3.21-.68.32-1.14.32s-.85-.11-1.19-.34c-.34-.23-.5-.56-.49-1v-.02h.35c0,.35.13.62.4.79s.58.26.94.26.65-.08.88-.24c.22-.16.33-.37.33-.63Z"/>
          <path class="st2" d="M172.75,75.07v.02c-.03.46-.2.82-.48,1.08-.29.26-.67.39-1.15.39-.51,0-.92-.18-1.23-.55-.31-.37-.47-.84-.47-1.43v-.74c0-.58.16-1.06.47-1.42.31-.37.72-.55,1.23-.55s.87.13,1.15.39c.28.26.45.62.49,1.08v.02h-.36c-.05-.38-.18-.67-.39-.87-.21-.2-.51-.3-.89-.3s-.72.15-.96.46c-.24.31-.36.71-.36,1.19v.75c0,.49.12.89.36,1.2.24.31.56.46.96.46s.68-.1.89-.29c.21-.2.34-.49.39-.88h.35Z"/>
          <path class="st2" d="M174.69,76.5h-.38v-4.57h.38v4.57Z"/>
          <path class="st2" d="M179.04,74.29h-2.2v1.89h2.52v.32h-2.89v-4.57h2.88v.32h-2.5v1.72h2.2v.32Z"/>
          <path class="st2" d="M184.04,76.5h-.37l-2.59-3.93h-.02v3.93h-.38v-4.57h.38l2.59,3.92h.02v-3.92h.37v4.57Z"/>
          <path class="st2" d="M188.9,75.07v.02c-.03.46-.2.82-.48,1.08-.29.26-.67.39-1.15.39-.51,0-.92-.18-1.23-.55s-.47-.84-.47-1.43v-.74c0-.58.16-1.06.47-1.42.31-.37.72-.55,1.23-.55s.87.13,1.15.39c.28.26.45.62.49,1.08v.02h-.36c-.05-.38-.18-.67-.39-.87-.21-.2-.51-.3-.89-.3s-.72.15-.96.46c-.24.31-.36.71-.36,1.19v.75c0,.49.12.89.36,1.2.24.31.56.46.96.46s.68-.1.89-.29c.21-.2.34-.49.39-.88h.35Z"/>
          <path class="st2" d="M192.95,74.29h-2.2v1.89h2.52v.32h-2.89v-4.57h2.88v.32h-2.5v1.72h2.2v.32Z"/>
          <path class="st2" d="M197.2,75.38c0-.25-.09-.45-.28-.61-.19-.16-.51-.3-.97-.42-.5-.12-.88-.29-1.14-.49-.26-.2-.39-.47-.39-.81s.14-.63.43-.85c.29-.22.66-.33,1.11-.33s.85.13,1.14.39c.29.26.43.58.42.96v.02h-.35c0-.3-.11-.56-.32-.75-.22-.2-.51-.29-.88-.29s-.65.08-.86.24c-.21.16-.31.37-.31.61s.1.42.29.58c.19.15.52.29.98.41.49.13.86.29,1.12.51.26.21.38.5.38.84s-.15.65-.45.87c-.3.21-.68.32-1.14.32s-.85-.11-1.19-.34c-.34-.23-.5-.56-.49-1v-.02h.35c0,.35.13.62.4.79.27.17.58.26.94.26s.65-.08.88-.24c.22-.16.33-.37.33-.63Z"/>
        </g>
      </g>
      <g>
        <polygon class="st6" points="141.66 28.85 141.66 28.85 141.66 28.85 141.66 38.88 165.82 28.85 165.82 28.85 165.82 18.82 141.66 28.85"/>
        <polygon class="st6" points="117.49 28.85 117.5 28.84 117.49 28.85 131.12 34.52 131.12 24.48 117.49 18.82 117.49 28.85"/>
        <polygon class="st0" points="119.05 18.17 131.12 23.19 141.66 18.82 141.66 18.82 141.66 8.79 119.05 18.17"/>
        <polygon class="st0" points="164.28 18.18 153.74 13.8 153.74 22.55 164.28 18.18"/>
      </g>
    </g>
  </g>
  <g id="rz02">
    <g>
      <g>
        <path class="st2" d="M62.87,54.64v9.11h-1.51v-3.89h-4.08v3.89h-1.52v-9.11h1.52v4h4.08v-4h1.51Z"/>
        <path class="st2" d="M72.3,58.37v1.64c0,2.25-1.51,3.87-3.77,3.87s-3.68-1.63-3.68-3.87v-1.64c0-2.23,1.46-3.87,3.68-3.87s3.77,1.64,3.77,3.87h0ZM70.78,60.01v-1.65c0-1.51-.85-2.6-2.25-2.6s-2.16,1.08-2.16,2.6v1.65c0,1.53.81,2.62,2.17,2.62s2.25-1.09,2.25-2.62h0Z"/>
        <path class="st2" d="M79.51,60.79h1.52c-.18,1.92-1.38,3.08-3.49,3.08s-3.53-1.54-3.53-3.82v-1.73c0-2.26,1.4-3.82,3.53-3.82s3.3,1.12,3.5,3.12h-1.52c-.16-1.27-.69-1.9-1.98-1.9s-2.02,1.07-2.02,2.59v1.75c0,1.54.74,2.6,2.02,2.6s1.81-.61,1.97-1.87h0Z"/>
        <path class="st2" d="M90.1,54.64v9.11h-1.51v-3.89h-4.08v3.89h-1.52v-9.11h1.52v4h4.08v-4h1.51Z"/>
        <path class="st2" d="M97.5,61.41c0-.77-.46-1.2-1.91-1.58-2.08-.55-3.18-1.34-3.18-2.79s1.31-2.53,3.26-2.53,3.34,1.21,3.34,2.78h-1.52c0-.95-.64-1.57-1.83-1.57-1.12,0-1.73.53-1.73,1.3,0,.36.16.65.48.86.31.23.85.44,1.62.65,2,.54,2.99,1.39,2.99,2.86,0,1.54-1.3,2.48-3.3,2.48s-3.58-1.03-3.58-2.86h1.52c0,1.13.81,1.65,2.06,1.65,1.15,0,1.78-.47,1.78-1.26h0Z"/>
        <path class="st2" d="M106.11,60.79h1.52c-.18,1.92-1.38,3.08-3.49,3.08s-3.53-1.54-3.53-3.82v-1.73c0-2.26,1.4-3.82,3.53-3.82s3.3,1.12,3.5,3.12h-1.52c-.16-1.27-.69-1.9-1.98-1.9s-2.02,1.07-2.02,2.59v1.75c0,1.54.74,2.6,2.02,2.6s1.81-.61,1.97-1.87h0Z"/>
        <path class="st2" d="M116.71,54.64v9.11h-1.51v-3.89h-4.08v3.89h-1.52v-9.11h1.52v4h4.08v-4h1.51Z"/>
        <path class="st2" d="M124.61,54.64h1.52v6.11c0,2.06-1.4,3.14-3.57,3.14s-3.5-1.08-3.5-3.14v-6.11h1.52v6.11c0,1.3.75,1.92,1.98,1.92s2.05-.62,2.05-1.92v-6.11Z"/>
        <path class="st2" d="M129.98,54.64v7.9h4.35v1.21h-5.87v-9.11h1.52Z"/>
        <path class="st2" d="M141.68,58.43v1.22h-3.98v2.88h4.62v1.21h-6.14v-9.11h6.1v1.22h-4.58v2.57h3.99Z"/>
        <path class="st2" d="M156.18,58.37v1.64c0,2.25-1.51,3.87-3.77,3.87s-3.68-1.63-3.68-3.87v-1.64c0-2.23,1.46-3.87,3.68-3.87s3.77,1.64,3.77,3.87h0ZM154.66,60.01v-1.65c0-1.51-.85-2.6-2.25-2.6s-2.17,1.08-2.17,2.6v1.65c0,1.53.81,2.62,2.17,2.62s2.25-1.09,2.25-2.62h0Z"/>
        <path class="st2" d="M163.13,61.41c0-.77-.45-1.2-1.91-1.58-2.08-.55-3.18-1.34-3.18-2.79s1.31-2.53,3.26-2.53,3.34,1.21,3.34,2.78h-1.52c0-.95-.64-1.57-1.83-1.57-1.13,0-1.73.53-1.73,1.3,0,.36.16.65.48.86.31.23.85.44,1.62.65,2,.54,2.99,1.39,2.99,2.86,0,1.54-1.29,2.48-3.3,2.48s-3.58-1.03-3.58-2.86h1.52c0,1.13.81,1.65,2.06,1.65,1.14,0,1.78-.47,1.78-1.26h0Z"/>
        <path class="st2" d="M173.79,54.64v9.11h-1.51l-4.06-6.68h-.02v6.68h-1.52v-9.11h1.52l4.06,6.67h.02v-6.67h1.51Z"/>
        <path class="st2" d="M181.87,63.75l-.74-2.18h-3.51l-.75,2.18h-1.54l3.35-9.11h1.45l3.3,9.11h-1.54ZM179.37,56.48l-1.33,3.87h2.68l-1.33-3.87h-.02Z"/>
        <path class="st2" d="M188.4,63.75h-3.46v-9.11h3.05c2.04,0,3.19.8,3.19,2.48,0,.83-.49,1.5-1.31,1.82v.02c1.07.23,1.66,1.09,1.66,2.17,0,1.75-1.12,2.62-3.13,2.62h0ZM186.46,55.86v2.61h1.69c.96,0,1.51-.44,1.51-1.28,0-.92-.54-1.33-1.67-1.33h-1.53ZM188.55,59.61h-2.09v2.93h1.94c1.05,0,1.61-.5,1.61-1.4,0-.98-.44-1.53-1.46-1.53h0Z"/>
        <path class="st2" d="M200.14,57.3c0,1.12-.54,1.93-1.54,2.37l2.06,3.96v.12h-1.67l-1.82-3.67h-1.99v3.67h-1.52v-9.11h3.28c2.07,0,3.19.93,3.19,2.67h0ZM195.18,55.86v3h1.77c1.12,0,1.66-.53,1.66-1.5s-.53-1.5-1.67-1.5h-1.76Z"/>
        <path class="st2" d="M207.84,54.64h1.52v6.11c0,2.06-1.4,3.14-3.57,3.14s-3.5-1.08-3.5-3.14v-6.11h1.52v6.11c0,1.3.75,1.92,1.98,1.92s2.05-.62,2.05-1.92v-6.11ZM205.19,52.39v1.34h-1.51v-1.34h1.51ZM207.97,52.39v1.34h-1.51v-1.34h1.51Z"/>
        <path class="st2" d="M216.92,60.79h1.52c-.18,1.92-1.38,3.08-3.49,3.08s-3.53-1.54-3.53-3.82v-1.73c0-2.26,1.4-3.82,3.53-3.82s3.3,1.12,3.5,3.12h-1.52c-.16-1.27-.69-1.9-1.98-1.9s-2.02,1.07-2.02,2.59v1.75c0,1.54.74,2.6,2.02,2.6s1.81-.61,1.97-1.87h0Z"/>
        <path class="st2" d="M225.78,63.75l-2.93-4-.93,1.03v2.97h-1.52v-9.11h1.52v4.21l3.58-4.21h1.8l-3.41,3.95,3.82,5.16h-1.93Z"/>
        <g>
          <path class="st2" d="M78.03,70.85h.44v3.63c0,1.19-.76,1.8-1.93,1.8s-1.9-.61-1.9-1.8v-3.63h.44v3.63c0,.93.58,1.43,1.46,1.43s1.49-.5,1.49-1.43v-3.63Z"/>
          <path class="st2" d="M84.09,70.85v5.35h-.44l-3.05-4.62h-.01v4.62h-.44v-5.35h.44l3.05,4.61h0v-4.61h.44Z"/>
          <path class="st2" d="M86.63,70.85v5.35h-.44v-5.35h.44Z"/>
          <path class="st2" d="M88.65,70.85l1.61,4.45.11.38h.02l.11-.38,1.61-4.45h.47l-1.99,5.35h-.42l-1.99-5.35h.48Z"/>
          <path class="st2" d="M96.8,73.24v.37h-2.58v2.22h2.95v.37h-3.39v-5.35h3.37v.38h-2.93v2.01h2.58Z"/>
          <path class="st2" d="M102.42,72.37c0,.66-.41,1.18-1.04,1.37l1.32,2.41v.06h-.49l-1.26-2.37h-1.65v2.37h-.44v-5.35h1.82c1.1,0,1.74.53,1.74,1.51h0ZM99.3,71.23v2.23h1.48c.78,0,1.2-.45,1.2-1.1,0-.71-.46-1.13-1.3-1.13h-1.38Z"/>
          <path class="st2" d="M107.27,74.9c0-.6-.36-.92-1.47-1.21-1.19-.3-1.78-.71-1.78-1.53s.73-1.39,1.8-1.39,1.85.68,1.85,1.6h-.44c0-.73-.53-1.23-1.41-1.23s-1.37.42-1.37,1c0,.55.38.87,1.49,1.15,1.17.3,1.76.75,1.76,1.58s-.76,1.4-1.86,1.4-2-.53-2-1.6h.44c0,.85.7,1.23,1.56,1.23s1.42-.4,1.42-1.02h0Z"/>
          <path class="st2" d="M110.02,70.85v5.35h-.44v-5.35h.44Z"/>
          <path class="st2" d="M115.59,70.85v.38h-1.82v4.98h-.44v-4.98h-1.81v-.38h4.07Z"/>
          <path class="st2" d="M116.87,70.85l1.65,2.97,1.66-2.97h.51l-1.95,3.4v1.96h-.44v-1.98l-1.94-3.37h.51Z"/>
          <path class="st2" d="M128.03,73.1v.87c0,1.38-.82,2.31-2.09,2.31s-2.06-.94-2.06-2.31v-.87c0-1.37.8-2.32,2.06-2.32s2.1.95,2.1,2.32h0ZM127.59,73.97v-.88c0-1.15-.62-1.92-1.66-1.92s-1.62.78-1.62,1.92v.88c0,1.16.61,1.93,1.62,1.93s1.65-.77,1.65-1.93h0Z"/>
          <path class="st2" d="M132.64,73.32v.38h-2.6v2.51h-.44v-5.35h3.41v.38h-2.98v2.09h2.6Z"/>
          <path class="st2" d="M139.96,76.21l-.56-1.51h-2.44l-.56,1.51h-.46l2.03-5.35h.42l2.02,5.35h-.46ZM138.19,71.4l-1.09,2.93h2.16l-1.07-2.93Z"/>
          <path class="st2" d="M143.47,73.98h-1.4v2.22h-.44v-5.35h1.84c1.15,0,1.76.61,1.76,1.56s-.62,1.57-1.76,1.57h0ZM142.07,71.23v2.38h1.4c.9,0,1.33-.49,1.33-1.18s-.43-1.19-1.33-1.19h-1.4Z"/>
          <path class="st2" d="M148.35,73.98h-1.4v2.22h-.44v-5.35h1.84c1.15,0,1.77.61,1.77,1.56s-.62,1.57-1.77,1.57h0ZM146.95,71.23v2.38h1.4c.9,0,1.33-.49,1.33-1.18s-.43-1.19-1.33-1.19h-1.4Z"/>
          <path class="st2" d="M151.98,70.85v4.98h2.65v.37h-3.09v-5.35h.44Z"/>
          <path class="st2" d="M156.68,70.85v5.35h-.44v-5.35h.44Z"/>
          <path class="st2" d="M161.79,73.24v.37h-2.58v2.22h2.95v.37h-3.39v-5.35h3.37v.38h-2.93v2.01h2.58Z"/>
          <path class="st2" d="M165.39,76.21h-1.52v-5.35h1.55c1.36,0,2.26.93,2.26,2.34v.69c0,1.41-.9,2.33-2.29,2.33ZM165.43,71.23h-1.12v4.61h1.09c1.15,0,1.85-.78,1.85-1.96v-.7c0-1.18-.7-1.95-1.82-1.95h0Z"/>
          <path class="st2" d="M174.9,74.9c0-.6-.36-.92-1.47-1.21-1.2-.3-1.78-.71-1.78-1.53s.73-1.39,1.8-1.39,1.85.68,1.85,1.6h-.44c0-.73-.53-1.23-1.41-1.23s-1.37.42-1.37,1c0,.55.38.87,1.49,1.15,1.17.3,1.76.75,1.76,1.58s-.76,1.4-1.86,1.4-2-.53-2-1.6h.44c0,.85.7,1.23,1.56,1.23s1.42-.4,1.42-1.02h0Z"/>
          <path class="st2" d="M180.03,74.54h.44c-.12,1.12-.79,1.74-1.94,1.74-1.22,0-1.99-.92-1.99-2.31v-.87c0-1.39.78-2.32,1.99-2.32s1.83.61,1.94,1.75h-.44c-.12-.91-.59-1.37-1.5-1.37s-1.55.78-1.55,1.94v.88c0,1.17.6,1.94,1.55,1.94s1.39-.43,1.5-1.37h0Z"/>
          <path class="st2" d="M182.72,70.85v5.35h-.44v-5.35h.44Z"/>
          <path class="st2" d="M187.83,73.24v.37h-2.58v2.22h2.95v.37h-3.39v-5.35h3.37v.38h-2.93v2.01h2.58Z"/>
          <path class="st2" d="M193.7,70.85v5.35h-.44l-3.05-4.62h-.01v4.62h-.44v-5.35h.44l3.05,4.61h.01v-4.61h.44Z"/>
          <path class="st2" d="M198.78,74.54h.44c-.12,1.12-.79,1.74-1.94,1.74-1.22,0-1.99-.92-1.99-2.31v-.87c0-1.39.78-2.32,1.99-2.32s1.83.61,1.94,1.75h-.44c-.12-.91-.59-1.37-1.5-1.37s-1.55.78-1.55,1.94v.88c0,1.17.59,1.94,1.55,1.94s1.39-.43,1.5-1.37h0Z"/>
          <path class="st2" d="M203.71,73.24v.37h-2.58v2.22h2.95v.37h-3.39v-5.35h3.37v.38h-2.93v2.01h2.58Z"/>
          <path class="st2" d="M208.47,74.9c0-.6-.36-.92-1.47-1.21-1.2-.3-1.78-.71-1.78-1.53s.73-1.39,1.8-1.39,1.85.68,1.85,1.6h-.44c0-.73-.53-1.23-1.41-1.23s-1.37.42-1.37,1c0,.55.38.87,1.49,1.15,1.17.3,1.76.75,1.76,1.58s-.76,1.4-1.86,1.4-2-.53-2-1.6h.44c0,.85.7,1.23,1.56,1.23s1.42-.4,1.42-1.02h0Z"/>
        </g>
      </g>
      <g>
        <polygon class="st0" points="164.62 17.94 152.11 22.95 152.11 12.93 164.62 17.94"/>
        <polygon class="st0" points="131.24 22.95 118.72 17.94 141.67 8.76 141.67 18.77 131.24 22.95"/>
        <polygon class="st6" points="131.24 34.64 116.63 28.79 116.63 18.77 131.24 24.62 131.24 34.64"/>
        <polygon class="st6" points="166.71 28.79 166.71 18.77 141.67 28.79 141.67 38.81 166.71 28.79"/>
      </g>
    </g>
  </g>
  <g id="Herleitung" class="st3">
    <polygon class="st5" points="104.06 23.75 141.67 8.73 179.2 23.75 141.67 38.78 104.06 23.75"/>
    <rect class="st1" x="29.7" y="8.76" width="7.76" height="15.02"/>
    <rect class="st1" x="36.03" y="23.79" width="7.75" height="15.02"/>
    <rect class="st4" x="27.92" y="63.72" width="7.75" height="12.46"/>
    <rect class="st4" x="34.54" y="51.26" width="7.75" height="12.46"/>
    <rect class="st4" x="27.46" y="38.78" width="7.75" height="12.46"/>
    <polygon class="st4" points="152.09 22.92 152.09 12.9 164.64 17.91 152.09 22.92"/>
  </g>
</svg>