<?xml version="1.0" encoding="UTF-8"?>
<svg xmlns="http://www.w3.org/2000/svg" version="1.1" viewBox="0 0 214.48 67">
  <defs>
    <style>
      .st0 { fill: #cbcccc; }
      .st2 { fill: #fbb900; }
      .st6 { fill: #ac0634; }
      .st7 { fill: #fff; stroke: #fff; stroke-width: .08px; }
    </style>
  </defs>
  <g>
    <rect class="st6" x="0" width="214.48" height="66.85"/>
    <g>
      <path class="st7" d="M17.48,42.07c0,.87.09,1.45.39,1.85.42.59,1.25.79,1.89.79.77,0,1.59-.25,2.09-.93.37-.48.45-1.11.45-1.86v-4.91c0-1.15-.14-1.43-.86-1.44-.24,0-.4-.02-.4-.22,0-.13.13-.21.3-.21.32,0,.62.06,1.12.06.56,0,.83-.06,1.12-.06.14,0,.26.04.26.2,0,.2-.25.18-.5.23-.57.04-.58.38-.59,1.17v5.06c0,.88-.08,1.62-.63,2.25-.61.78-1.55,1.03-2.55,1.03-.79,0-1.74-.16-2.38-.68-.63-.51-.8-1.18-.8-2.25v-5.68c0-.76,0-.89-.63-.92-.28-.03-.42-.06-.42-.23,0-.14.13-.18.27-.18.46,0,.9.06,1.36.06.65,0,1.07-.06,1.47-.06.2,0,.32.03.32.19s-.2.18-.45.21c-.64.02-.81.09-.81,1.09v5.44Z"/>
      <path class="st7" d="M25.24,36.61c0-.8-.03-1.02-.65-1.05-.28-.03-.46-.02-.46-.21,0-.2.21-.21.35-.21.21,0,.55.03.78.03s.57-.03.79-.03c.26,0,.35.21.6.65,1.02,1.56,2.88,4.66,4.04,6.35.23.37.32.48.42.58.03-.03.04-.1.04-.21v-5.73c0-.97-.1-1.18-.76-1.21-.23-.02-.47-.05-.47-.21,0-.14.11-.21.24-.21.3,0,.62.06,1.21.06.4,0,.76-.06,1.12-.06.17,0,.26.06.26.21,0,.18-.2.18-.47.21-.65.03-.7.27-.7,1.03v8.17c0,.34,0,.38-.14.38s-.22-.14-.47-.62c-.16-.24-.33-.5-.49-.73-1.44-2.27-2.93-4.51-4.34-6.8-.15-.28-.31-.54-.4-.56-.04.06-.06.15-.06.37v5.97c0,1.37.05,1.7.78,1.74.3.05.54.02.54.22,0,.14-.1.19-.25.19-.31,0-.52-.06-1.21-.06-.62,0-.95.06-1.29.06-.14,0-.22-.06-.22-.19,0-.17.32-.19.55-.22.61-.06.65-.32.65-1.07v-6.82Z"/>
      <path class="st7" d="M35.4,43.49c0,.73.04.97.75,1.02.23.04.5.05.5.25,0,.12-.09.17-.31.17-.34,0-.63-.06-1.49-.06s-1.15.06-1.5.06c-.16,0-.28-.01-.28-.18,0-.19.24-.2.48-.23.71-.06.73-.18.73-.98v-7.09c0-.73-.07-.85-.69-.88-.35-.04-.53,0-.53-.23,0-.13.09-.2.3-.2.48,0,.97.06,1.48.06s1.07-.06,1.52-.06c.18,0,.31.06.31.21,0,.19-.22.18-.58.22-.63.03-.69.22-.69.88v7.05Z"/>
      <path class="st7" d="M38.79,35.34c0,.15-.13.17-.47.22-.16.03-.51.12-.51.33,0,.18.12.48.18.65l1.74,5.04c.25.76.44,1.22.51,1.22.08,0,.26-.52.62-1.83l1.34-4.04c.08-.28.19-.65.19-.95,0-.33-.26-.41-.59-.43-.28-.02-.47-.04-.47-.19,0-.16.14-.22.29-.22.25,0,.62.06,1.05.06.35,0,.67-.06.97-.06.15,0,.23.05.23.18,0,.17-.21.19-.49.25-.32.05-.46.4-.75,1.26-.85,2.55-1.66,5.13-2.46,7.69-.06.24-.16.56-.31.56-.13,0-.2-.23-.29-.59-.64-2-1.84-5.43-2.76-8.12-.16-.46-.28-.78-.61-.81-.35-.04-.49-.11-.49-.23,0-.15.12-.19.26-.19.34,0,.75.06,1.27.06.55,0,1.02-.06,1.3-.06.14,0,.24.03.24.19h0Z"/>
      <path class="st7" d="M44.28,36.42c0-.66-.05-.82-.61-.85-.28-.05-.52-.02-.52-.22,0-.13.11-.21.33-.21.63,0,1.45.06,2.6.06,1.44,0,2.44-.06,3.21-.06.28,0,.29.07.29.62,0,.62,0,1.07,0,1.41,0,.25-.03.34-.16.34-.09,0-.16-.1-.22-.25-.06-.15-.13-.32-.19-.46-.4-.96-.91-1.28-2.43-1.28-.54,0-.83.02-.99.1-.18.08-.2.26-.2.49v2.85c0,.46.02.48.92.48,1.26,0,1.52-.09,1.68-.71.12-.43.12-.65.3-.65.1,0,.15.06.15.24,0,.42-.06.86-.06,1.27,0,.48.06,1,.06,1.46,0,.21-.08.25-.15.25-.16,0-.19-.28-.28-.61-.18-.7-.5-.87-1.76-.87-.78,0-.85.04-.85.39v3.05c0,1.04.54,1.24,1.61,1.24,1.42,0,1.99-.34,2.44-1.67.12-.39.17-.53.31-.53.09,0,.13.04.14.15,0,.14,0,.41,0,.96-.03.41-.07.77-.1,1.08-.01.37-.14.37-.34.37-1.4,0-2.97-.03-3.97-.03-.81,0-1.37.06-1.99.06-.24,0-.38-.04-.38-.21,0-.15.18-.19.4-.21.72-.04.78-.23.78-1.04v-7.03Z"/>
      <path class="st7" d="M52.54,39.58c0,.21.1.26.54.26,1.1,0,2.66-.41,2.66-2.18,0-1.44-.79-2.17-2.12-2.17-1.01,0-1.08.17-1.08.93v3.15ZM52.54,43.51c0,.71.05.94.74.99.33.05.55.07.55.24,0,.14-.1.18-.27.18-.35,0-.73-.06-1.52-.06-.84,0-1.17.06-1.55.06-.21,0-.32-.03-.32-.18,0-.19.18-.18.59-.24.62-.03.67-.23.67-1.02v-6.88c0-.8-.03-1-.67-1.05-.26-.04-.55-.02-.55-.21,0-.14.11-.22.31-.22.44,0,.89.06,1.32.06.75,0,1.48-.06,2.19-.06,1.68,0,2.95.91,2.95,2.39,0,.98-.55,1.72-1.46,2.13-.45.21-.73.2-.86.26.22.08.43.3.64.7.58,1.18,1,2.18,1.39,2.94.24.48.46.91.88.93.21.04.58.04.58.24,0,.14-.11.17-.25.17-.19,0-.46-.05-.78-.05-.25,0-.6.05-.83.05-.22,0-.29-.2-.49-.65-.36-.76-.78-1.75-1.4-3.12-.41-.85-.52-.97-1.38-.97-.4,0-.46.1-.46.46v2.86Z"/>
      <path class="st7" d="M63.66,42.14c0,1.6-1.23,2.94-3.25,2.94-.82,0-1.58-.2-2.05-.48-.19-.12-.24-.32-.25-.99,0-.41,0-1.01.05-1.39.02-.18.07-.23.19-.23.2,0,.2.3.26.58.31,1.52,1.06,2.18,2.08,2.18,1.09,0,1.99-.86,1.99-2.05s-.77-1.84-1.73-2.34c-.24-.13-.48-.27-.72-.39-1.04-.54-2.02-1.23-2.02-2.58,0-1.43,1.31-2.45,2.79-2.45.63,0,1.5.19,1.87.41.17.08.16.2.18.52,0,.3.02.65.03,1.09,0,.5-.03.55-.16.55-.19,0-.19-.24-.26-.48-.34-1.25-.93-1.75-1.8-1.75s-1.7.61-1.7,1.56c0,1.38,1.35,1.94,2.39,2.48,1.1.59,2.11,1.29,2.11,2.8v.02Z"/>
      <path class="st7" d="M66.13,43.49c0,.73.04.97.75,1.02.23.04.5.05.5.25,0,.12-.09.17-.31.17-.34,0-.63-.06-1.49-.06s-1.15.06-1.5.06c-.16,0-.28-.01-.28-.18,0-.19.24-.2.48-.23.71-.06.73-.18.73-.98v-7.09c0-.73-.07-.85-.69-.88-.35-.04-.53,0-.53-.23,0-.13.09-.2.3-.2.48,0,.97.06,1.48.06s1.07-.06,1.52-.06c.18,0,.31.06.31.21,0,.19-.22.18-.58.22-.63.03-.69.22-.69.88v7.05Z"/>
      <path class="st7" d="M70.88,35.89c0-.29-.07-.33-.58-.33-1.18,0-1.64.4-2.12,1.31-.14.32-.25.7-.41.7-.12,0-.16-.05-.16-.28,0-.07.04-.23.06-.36.11-.54.25-1.25.4-1.84.06-.25.11-.43.24-.43s.17.09.2.2c.05.16.09.32.45.32h5.15c.5,0,.67-.06.76-.28.05-.12.09-.24.24-.24.13,0,.17.12.17.37,0,.17-.02.32-.02.44-.02.49-.06,1.13-.1,1.62-.03.31-.08.44-.22.44-.15,0-.18-.28-.25-.58-.24-.84-.43-1.39-1.5-1.39h-.74c-.43,0-.45.06-.45.46v7.48c0,.78.09.98.69,1,.29.04.57.04.57.22s-.14.19-.3.19c-.36,0-.78-.06-1.51-.06-.8,0-1.14.06-1.52.06-.2,0-.29-.05-.29-.19,0-.15.11-.19.53-.22.66-.02.71-.2.71-1.02v-7.6Z"/>
      <path class="st7" d="M83.85,35.89c0-.29-.07-.33-.58-.33-1.18,0-1.64.4-2.12,1.31-.14.32-.25.7-.41.7-.12,0-.16-.05-.16-.28,0-.07.04-.23.06-.36.11-.54.25-1.25.4-1.84.06-.25.11-.43.24-.43s.17.09.2.2c.05.16.09.32.45.32h5.15c.5,0,.67-.06.76-.28.06-.12.09-.24.24-.24.13,0,.17.12.17.37,0,.17-.02.32-.02.44-.02.49-.06,1.13-.1,1.62-.03.31-.08.44-.22.44-.15,0-.18-.28-.25-.58-.24-.84-.43-1.39-1.5-1.39h-.74c-.43,0-.45.06-.45.46v7.48c0,.78.09.98.69,1,.29.04.57.04.57.22s-.14.19-.3.19c-.36,0-.78-.06-1.51-.06-.8,0-1.14.06-1.52.06-.2,0-.29-.05-.29-.19,0-.15.12-.19.53-.22.66-.02.71-.2.71-1.02v-7.6Z"/>
      <g>
        <path class="st7" d="M78.37,40.97c.31,0,.37-.03.37-.12,0-.06-.06-.23-.08-.34-.23-.65-.55-1.56-.91-2.78-.06-.19-.14-.38-.23-.38-.1,0-.16.18-.25.49-.34,1.12-.59,1.95-.81,2.62-.07.26-.1.37-.1.42,0,.08.08.1.32.1h1.69ZM76.51,41.38c-.29,0-.34.03-.55.72-.27,1-.53,1.61-.53,1.95,0,.35.39.45.74.48.23.03.43.03.43.21,0,.16-.15.18-.31.18-.27,0-.78-.06-1.11-.06-.34,0-1.04.06-1.19.06-.12,0-.22-.05-.22-.18,0-.16.17-.18.31-.2.38-.02.58-.09.85-.83.88-2.59,1.69-5.21,2.48-7.83.06-.19.12-.37.17-.55.05-.19.09-.41.27-.41.16,0,.2.16.25.34.91,2.75,1.83,5.52,2.74,8.28.15.42.35.97.78,1,.18.03.46.05.46.24,0,.11-.12.14-.28.14-.49,0-.93-.06-1.44-.06-.47,0-.96.06-1.38.06-.12,0-.26-.03-.26-.16,0-.17.22-.22.42-.22.3,0,.66-.04.66-.42,0-.25-.33-1.03-.59-1.96-.24-.71-.23-.78-.71-.78h-2Z"/>
        <path class="st7" d="M76.47,34.67c-.39,0-.63-.35-.63-.71,0-.4.23-.69.65-.69.39,0,.65.33.65.7s-.27.7-.65.7h-.02Z"/>
        <path class="st7" d="M79.07,34.67c-.39,0-.63-.35-.63-.71,0-.4.23-.69.65-.69.39,0,.65.33.65.7s-.27.7-.65.7h-.02Z"/>
      </g>
      <path class="st7" d="M134.33,39.97c0-3.4-1.65-4.67-2.96-4.67-1.48,0-3,1.36-3,4.68s1.52,4.68,3,4.68c1.28,0,2.96-1.23,2.96-4.68h0ZM127.05,39.98c0-2.86,2.07-5.06,4.3-5.06s4.29,2.12,4.29,5.07-1.99,5.08-4.29,5.08-4.3-2.21-4.3-5.08v-.02Z"/>
      <path class="st7" d="M142.13,42.14c0,1.6-1.23,2.94-3.25,2.94-.82,0-1.58-.2-2.05-.48-.19-.12-.24-.32-.25-.99,0-.41,0-1.01.05-1.39.02-.18.07-.23.19-.23.2,0,.2.3.26.58.31,1.52,1.06,2.18,2.08,2.18,1.08,0,1.99-.86,1.99-2.05s-.77-1.84-1.73-2.34c-.24-.13-.49-.27-.72-.39-1.04-.54-2.02-1.23-2.02-2.58,0-1.43,1.31-2.45,2.79-2.45.63,0,1.5.19,1.87.41.17.08.16.2.18.52,0,.3.02.65.03,1.09,0,.5-.03.55-.16.55-.19,0-.19-.24-.26-.48-.34-1.25-.92-1.75-1.8-1.75s-1.7.61-1.7,1.56c0,1.38,1.35,1.94,2.39,2.48,1.09.59,2.11,1.29,2.11,2.8v.02Z"/>
      <path class="st7" d="M143.82,36.61c0-.8-.03-1.02-.65-1.05-.28-.03-.46-.02-.46-.21,0-.2.21-.21.36-.21.21,0,.55.03.78.03s.57-.03.79-.03c.26,0,.36.21.6.65,1.02,1.56,2.88,4.66,4.04,6.35.23.37.32.48.42.58.04-.03.04-.1.04-.21v-5.73c0-.97-.1-1.18-.76-1.21-.23-.02-.46-.05-.46-.21,0-.14.11-.21.24-.21.3,0,.61.06,1.21.06.4,0,.76-.06,1.12-.06.17,0,.25.06.25.21,0,.18-.2.18-.47.21-.65.03-.7.27-.7,1.03v8.17c0,.34,0,.38-.14.38s-.21-.14-.47-.62c-.16-.24-.33-.5-.49-.73-1.44-2.27-2.93-4.51-4.34-6.8-.15-.28-.31-.54-.4-.56-.04.06-.06.15-.06.37v5.97c0,1.37.05,1.7.78,1.74.3.05.54.02.54.22,0,.14-.1.19-.25.19-.31,0-.52-.06-1.21-.06-.62,0-.95.06-1.29.06-.14,0-.22-.06-.22-.19,0-.17.32-.19.55-.22.61-.06.65-.32.65-1.07v-6.82Z"/>
      <path class="st7" d="M155.33,40.97c.31,0,.37-.03.37-.12,0-.06-.06-.23-.08-.34-.23-.65-.55-1.56-.91-2.78-.05-.19-.14-.38-.23-.38-.1,0-.16.18-.25.49-.34,1.12-.59,1.95-.81,2.62-.07.26-.1.37-.1.42,0,.08.08.1.32.1h1.69ZM153.47,41.38c-.29,0-.34.03-.55.72-.27,1-.53,1.61-.53,1.95,0,.35.39.45.74.48.23.03.43.03.43.21,0,.16-.15.18-.31.18-.27,0-.78-.06-1.1-.06-.34,0-1.04.06-1.19.06-.12,0-.22-.05-.22-.18,0-.16.17-.18.3-.2.38-.02.58-.09.85-.83.88-2.59,1.69-5.21,2.48-7.83.06-.19.12-.37.17-.55.05-.19.09-.41.26-.41s.2.16.25.34c.91,2.75,1.82,5.52,2.74,8.28.15.42.35.97.78,1,.18.03.46.05.46.24,0,.11-.12.14-.29.14-.49,0-.93-.06-1.43-.06-.47,0-.96.06-1.38.06-.12,0-.26-.03-.26-.16,0-.17.22-.22.42-.22.3,0,.66-.04.66-.42,0-.25-.33-1.03-.59-1.96-.24-.71-.23-.78-.71-.78h-2Z"/>
      <path class="st7" d="M161.13,43.22c0,.98.22,1.35,1.48,1.35.75,0,1.37-.2,1.81-.75.36-.43.56-1.07.56-1.77,0-.75-.26-1.38-.77-1.78-.55-.46-1.17-.63-2.3-.63-.69,0-.76.05-.78.4v3.19ZM161.13,38.85c0,.41.09.44.58.44.67,0,1.1-.03,1.58-.18.67-.23,1.13-.84,1.13-1.82,0-1.31-.86-2.01-2.08-2.01-1.08,0-1.2.22-1.2.83v2.75ZM160.02,36.55c0-.66-.08-.97-.67-.98-.2,0-.36.06-.47.04-.07,0-.11-.05-.11-.12,0-.17.33-.26.62-.32.85-.18,1.69-.24,2.56-.24,1.02,0,1.93.12,2.61.48.71.39,1.12,1.06,1.12,1.82,0,1.17-.95,1.85-1.99,2.14v.03c.23.04.48.08.71.17,1,.37,1.83,1.19,1.83,2.53,0,.85-.36,1.63-.96,2.14-.6.5-1.35.68-2.29.68-.82,0-1.73-.06-2.49-.06-.51,0-.97.06-1.27.06-.17,0-.3-.06-.3-.21,0-.16.2-.16.44-.2.63-.05.65-.22.65-.92v-7.04Z"/>
      <path class="st7" d="M169.13,39.58c0,.21.11.26.54.26,1.1,0,2.66-.41,2.66-2.18,0-1.44-.79-2.17-2.12-2.17-1.01,0-1.08.17-1.08.93v3.15ZM169.13,43.51c0,.71.05.94.74.99.33.05.55.07.55.24,0,.14-.1.18-.27.18-.35,0-.73-.06-1.52-.06-.84,0-1.17.06-1.55.06-.21,0-.32-.03-.32-.18,0-.19.18-.18.59-.24.62-.03.67-.23.67-1.02v-6.88c0-.8-.03-1-.67-1.05-.26-.04-.55-.02-.55-.21,0-.14.11-.22.31-.22.44,0,.88.06,1.32.06.75,0,1.47-.06,2.19-.06,1.68,0,2.95.91,2.95,2.39,0,.98-.55,1.72-1.46,2.13-.45.21-.73.2-.86.26.22.08.43.3.64.7.58,1.18,1,2.18,1.39,2.94.24.48.46.91.88.93.22.04.58.04.58.24,0,.14-.11.17-.25.17-.19,0-.46-.05-.78-.05-.25,0-.59.05-.83.05-.21,0-.29-.2-.49-.65-.36-.76-.78-1.75-1.4-3.12-.41-.85-.52-.97-1.38-.97-.4,0-.46.1-.46.46v2.86Z"/>
      <path class="st7" d="M190.16,43.93c-.01.38-.03.43-.33.6-.58.34-1.48.55-2.33.55-2.44,0-4.34-2.09-4.34-5.08s1.96-5.07,4.47-5.07c.83,0,1.75.26,2.14.44.21.1.23.19.26.6.02.28.06.71.06,1.14s-.02.5-.15.5c-.17,0-.24-.24-.54-.85-.38-.86-.96-1.43-1.94-1.43-1.72,0-3,1.65-3,4.56,0,3.13,1.42,4.8,3.07,4.8,1.13,0,1.69-.8,1.98-1.68.25-.69.31-1.06.48-1.06.13,0,.21.05.21.33l-.04,1.64Z"/>
      <path class="st7" d="M192.13,36.54c0-.81-.03-.94-.61-.98-.27-.05-.49-.03-.49-.23,0-.13.1-.19.25-.19.38,0,.89.06,1.43.06.49,0,.96-.06,1.39-.06.17,0,.26.06.26.2,0,.21-.19.17-.48.23-.58.03-.64.19-.64.84v2.84c0,.37,0,.44.07.44s.2-.18.35-.35c.56-.61,1.57-1.74,2.29-2.6.21-.27.55-.67.55-.84,0-.26-.21-.32-.51-.35-.22-.03-.37-.05-.37-.21,0-.12.11-.19.28-.19.41,0,.91.06,1.38.06s.92-.06,1.25-.06c.2,0,.28.06.28.18,0,.2-.2.17-.46.21-.45.03-.93.21-1.73,1.07-.54.58-1.07,1.16-1.57,1.77-.16.22-.3.35-.3.45,0,.09.12.23.24.45.55.78,1.25,1.85,2.3,3.65.89,1.42,1.07,1.54,1.42,1.59.22.04.44.03.44.21,0,.13-.12.2-.32.2-.45,0-.89-.06-1.44-.06s-1.03.06-1.41.06c-.22,0-.33-.04-.33-.2,0-.19.22-.19.47-.2.26-.02.58-.05.58-.36,0-.2-.19-.45-.48-.97-.62-.99-1.24-1.97-1.87-2.97-.11-.2-.3-.5-.41-.5-.11,0-.71.57-.71.84v2.87c0,.87.16,1.05.57,1.08.29.02.55.02.55.21,0,.15-.11.19-.35.19-.37,0-.8-.06-1.3-.06-.58,0-.98.06-1.41.06-.17,0-.27-.05-.27-.2s.12-.19.34-.21c.72-.05.77-.16.77-1.04v-6.92Z"/>
      <g>
        <path class="st7" d="M176.66,42.07c0,.87.1,1.45.39,1.85.42.59,1.25.79,1.89.79.77,0,1.59-.25,2.09-.93.37-.48.45-1.11.45-1.86v-4.91c0-1.15-.14-1.43-.86-1.44-.24,0-.4-.02-.4-.22,0-.13.13-.21.3-.21.32,0,.62.06,1.12.06.56,0,.83-.06,1.12-.06.14,0,.26.04.26.2,0,.2-.25.18-.5.23-.57.04-.58.38-.59,1.17v5.06c0,.88-.08,1.62-.63,2.25-.61.78-1.55,1.03-2.54,1.03-.79,0-1.75-.16-2.38-.68-.63-.51-.8-1.18-.8-2.25v-5.68c0-.76,0-.89-.63-.92-.28-.03-.42-.06-.42-.23,0-.14.13-.18.27-.18.46,0,.9.06,1.36.06.65,0,1.07-.06,1.47-.06.2,0,.32.03.32.19s-.2.18-.45.21c-.64.02-.81.09-.81,1.09v5.44Z"/>
        <path class="st7" d="M177.58,34.67c-.39,0-.63-.35-.63-.71,0-.4.23-.69.65-.69.39,0,.65.33.65.71s-.27.7-.65.7h-.02Z"/>
        <path class="st7" d="M180.18,34.67c-.39,0-.63-.35-.63-.71,0-.4.23-.69.65-.69.39,0,.65.33.65.71s-.27.7-.65.7h-.02Z"/>
      </g>
    </g>
    <path class="st2" d="M123.52,30.83c-1.25-.65-9.82-5.14-10.3-5.39v-10.39h10.3v15.77ZM112.74,14.05l-4.98-2.6h9.48c.16.09,2.97,1.6,4.84,2.6h-9.34ZM112.21,24.92c-.7-.37-1.49-.78-1.8-.94,0-.54,0-4.9,0-4.9,0-1.76-1.44-3.19-3.22-3.19s-3.22,1.43-3.22,3.19v4.86c-.31.16-1.1.57-1.79.93v-9.97c.47-.24,4.6-2.4,5.01-2.61.4.21,4.53,2.36,5.01,2.62v10.01ZM101.66,14.05h-9.39c1.86-1.01,4.66-2.52,4.82-2.6h9.57l-5,2.6ZM101.19,25.41c-.48.25-9.05,4.76-10.3,5.42v-15.77h10.3v10.35ZM117.48,10.44h-20.65l-6.95,3.75v18.3l12.31-6.47h0s2.79-1.46,2.79-1.46v-5.47c0-1.21.99-2.19,2.22-2.19s2.21.98,2.21,2.19c0,0,0,5.5,0,5.5l3.81,1.99h0s11.3,5.91,11.3,5.91V14.23l-7.04-3.79ZM107.24,13.72c.29,0,.53.23.53.52s-.24.52-.53.52-.53-.23-.53-.52.24-.52.53-.52ZM105.81,14.24c0,.78.64,1.42,1.43,1.42s1.43-.64,1.43-1.42-.64-1.42-1.43-1.42-1.43.64-1.43,1.42ZM113.22,28.36c1.25.65,9.82,5.13,10.3,5.39v12.99c-.52.27-15.86,8.31-16.31,8.54-.45-.23-15.8-8.27-16.31-8.54v-12.99c.48-.25,9.04-4.73,10.3-5.38v12.89l6.02,3.19.23-.12,5.78-3.06v-12.89ZM112.21,40.64c-.46.25-4.6,2.44-5.01,2.66-.41-.22-4.55-2.41-5.01-2.66v-13.94l-.73.38-11.57,6.05v14.21l17.32,9.06,17.31-9.06v-14.21l-12.3-6.44v13.94Z"/>
  </g>
</svg>
