<svg xmlns="http://www.w3.org/2000/svg" viewBox="15.08 62.44 253.33 198.28">
<path fill="#6c374d" d="M232.48,135.78c-30.52-27.49-60.26-42.01-90.61-42.02-30.42,0-60.27,14.43-90.9,42.02l-4.95,4.46,4.95,4.46c30.52,27.49,60.26,42.01,90.6,42.02,30.42,0,60.27-14.42,90.9-42.02l4.95-4.46-4.95-4.46ZM141.73,108.65c12.65.02,22.89,10.26,22.91,22.91-.02,12.65-10.26,22.89-22.91,22.92-12.65-.02-22.89-10.26-22.91-22.92.02-12.65,10.26-22.89,22.91-22.91ZM141.58,174.72c-24.79,0-50.11-11.13-77.49-34.48,17.33-14.77,33.84-24.62,49.91-29.89-4.51,5.88-7.19,13.23-7.19,21.21,0,19.29,15.63,34.91,34.91,34.92,19.28,0,34.91-15.63,34.91-34.92,0-8.01-2.7-15.38-7.23-21.27,16.08,5.26,32.61,15.15,49.96,29.94-27.48,23.42-52.88,34.48-77.79,34.48Z"/>
<path fill="#2db8c5" d="M162.54,211.37c-6.97.71-13.96,1.07-20.79,1.08h0c-37.84-.05-73.9-10.52-97.37-29h0c-15.36-12.08-24.3-27.22-24.29-43.52h0c-.01-10.5,3.71-20.62,10.4-29.56h0c6.69-8.96,16.29-16.86,28.37-23.52h0c22.97-12.63,52.27-19.39,82.9-19.41h0c22.17,0,44.01,3.66,63.35,10.67h0c17.67,6.43,32.03,15.14,42.19,25.63h0c10.14,10.45,16.11,22.94,16.1,36.18h0c0,11.22-4.31,22.02-11.87,31.45h0c-7.3,9.11-17.6,17.09-30.36,23.61h0l14.81,60.74-73.42-44.35h0ZM217.46,230.53l-10.24-42.02,7.16-3.55c12.2-6.03,21.57-13.34,27.76-21.08h0c6.2-7.77,9.23-15.83,9.24-23.95h0c-.01-9.57-4.2-18.99-12.72-27.84h0c-8.5-8.8-21.31-16.76-37.66-22.69h0c-17.86-6.49-38.41-9.96-59.26-9.95h0c-28.85-.02-56.37,6.48-77.11,17.92h0c-10.92,6.01-19.15,12.94-24.54,20.18h0c-5.4,7.26-8.01,14.72-8.02,22.39h0c0,11.73,6.29,23.43,19.73,34.11h0c20.38,16.21,54.35,26.46,89.93,26.41h0c6.44,0,13.06-.34,19.63-1.02h0l3.91-.41,52.17,31.52h0Z"/>
</svg>
