<svg xmlns="http://www.w3.org/2000/svg" viewBox="600.14 325.64 217.04 199.11">
<path fill="#417d21" d="M662.53,518.1l2.25-12.8c5.5.97,11.04,1.45,16.51,1.45h0c17.9.01,34.9-5.22,47.11-15.18h0c12.19-10.01,20.04-24.46,20.11-44.99h0c0-.45,0-.88-.01-1.32h0l13-.21c0,.52.01,1.03.01,1.53h0c.07,24-9.8,42.88-24.9,55.08h0c-15.08,12.24-34.94,18.08-55.31,18.09h0c-6.24,0-12.53-.55-18.76-1.65h0ZM756.09,503.24c13.01-15.48,20.7-34.66,20.67-52.47h0c0-9.84-2.28-19.25-7.19-27.74h0c-4.92-8.48-12.51-16.13-23.61-22.3h0l6.31-11.37c12.92,7.16,22.4,16.53,28.55,27.15h0c6.16,10.62,8.95,22.4,8.94,34.25h0c-.03,21.51-9,43.27-23.71,60.83h0l-9.96-8.35h0ZM680.01,492.02c-17.27,0-33.11-6.89-45.94-17.79h0c-12.85-10.92-22.85-25.85-28.93-42.53h0l12.21-4.45c5.35,14.72,14.21,27.81,25.13,37.07h0c10.94,9.27,23.77,14.7,37.52,14.7h0c9.83,0,20.28-2.75,31.2-9.29h0s6.69,11.15,6.69,11.15c-12.68,7.62-25.55,11.15-37.84,11.15h-.04ZM636.51,433.88c-6.16-10.62-8.95-22.41-8.95-34.26h0c.03-21.51,9-43.27,23.71-60.83h0l9.95,8.36c-13.01,15.47-20.7,34.65-20.67,52.47h0c0,9.84,2.28,19.25,7.19,27.74h0c4.92,8.48,12.51,16.13,23.61,22.31h0l-6.31,11.36c-12.92-7.16-22.4-16.53-28.55-27.15h0ZM774.83,386.07c-10.94-9.27-23.76-14.7-37.52-14.7h0c-9.83,0-20.27,2.75-31.2,9.3h0l-6.69-11.15c12.69-7.62,25.58-11.16,37.89-11.15h0c17.27,0,33.11,6.89,45.93,17.79h0c12.85,10.92,22.85,25.85,28.94,42.54h0l-12.22,4.45c-5.35-14.72-14.21-27.82-25.13-37.07h0ZM655.81,403.81c-.07-24,9.8-42.88,24.9-55.07h0c15.08-12.24,34.94-18.09,55.31-18.1h0c6.24,0,12.53.55,18.77,1.66h0l-2.26,12.8c-5.5-.97-11.04-1.46-16.51-1.46h0c-17.9-.01-34.89,5.22-47.11,15.18h0c-12.19,10.01-20.04,24.46-20.11,44.99h0c0,.43,0,.87.01,1.31h0l-13,.24c-.01-.51-.02-1.03-.02-1.55h0Z"/>
<path fill="#e7286b" d="M695.28,445.62s-4.05-3.45-8.87-7.44h0c-4.78-3.96-10.46-8.54-13.15-10.41h0l7.79-11.15c3.5,2.46,9.09,7,14.02,11.08h0c.91.75,1.8,1.49,2.63,2.19h0c5.59-9.54,16.72-26.06,32.69-37.82h0l8.02,10.99c-18.68,13.5-31.28,37.51-32.49,40.1h0c-.09.17-.11.22-.11.22h0l-3.82,7.95-6.71-5.72h0Z"/>
</svg>
