<svg xmlns="http://www.w3.org/2000/svg" viewBox="303.97 42.21 242.44 200.17">
<path fill="#2586a6" d="M489.25,89.64c-13.62.02-23.43,2.82-32.79,9.34-9.42,6.59-18.34,17.1-29.02,30.15l-1.85,2.26-.22.26-.22-.26-1.86-2.25c-12.78-15.53-21.95-24.62-30.64-30.37-9.67-6.38-19.09-9.11-31.51-9.13-30.14.07-52.08,22.43-52.17,53.17.09,30.74,22.03,53.11,52.17,53.18,12.94-.02,22.52-2.76,32.03-9.16,8.6-5.8,17.39-14.95,29.39-30.6l1.91-2.48.22-.29.22.29,1.91,2.48c11.66,15.21,20.92,24.64,30.02,30.58,9.73,6.33,19.83,9.16,32.73,9.18,29.96-.05,51.76-22.42,51.84-53.18-.08-30.75-22.02-53.12-52.17-53.17ZM415.97,143.25l-1.2,1.54c-11.19,14.41-18.81,22.5-26.29,27.95-8.29,6.05-16.93,8.87-27.2,8.87h-.13c-10.53,0-20.34-4-27.61-11.28-7.22-7.22-11.2-16.87-11.2-27.19,0-10.57,3.97-20.33,11.21-27.46,7.19-7.1,16.99-11.02,27.58-11.02h.12c9.6,0,18.01,2.95,26.49,9.27,8.16,6.07,16.36,15.01,26.95,27.47l1.26,1.48.15.17-.14.18ZM516.69,169.92c-7.1,7.11-16.84,11.03-27.44,11.03h-.12c-10.25,0-18.98-3-27.46-9.45-8.25-6.25-16.25-15.59-25.71-27.7l-1.15-1.48-.13-.17.13-.17,1.15-1.48c10.23-13.14,18.23-22.47,26.52-28.42,7.75-5.58,15.94-8.07,26.56-8.07h.21c10.42,0,20.13,3.96,27.32,11.15,7.2,7.19,11.16,16.89,11.16,27.32,0,10.59-3.91,20.33-11.03,27.44Z"/>
<g>
      <polygon fill="#fbba00" points="418.4 182.98 418.4 169.38 432 169.38 432 182.98 418.4 182.98 418.4 182.98"/>
      <polygon fill="#fbba00" points="418.4 210.18 418.4 196.58 432 196.58 432 210.18 418.4 210.18 418.4 210.18"/>
      <polygon fill="#fbba00" points="377.59 237.38 377.6 223.78 432 223.79 432 237.38 377.59 237.38 377.59 237.38"/>
      <polygon fill="#fbba00" points="418.4 115.21 418.4 101.61 432 101.61 432 115.22 418.4 115.21 418.4 115.21"/>
      <polygon fill="#fbba00" points="418.4 88.02 418.4 74.41 432 74.42 432 88.02 418.4 88.02 418.4 88.02"/>
      <polygon fill="#fbba00" points="418.4 60.81 418.4 47.21 472.8 47.21 472.8 60.82 418.4 60.81 418.4 60.81"/>
    </g>
</svg>
