<svg xmlns="http://www.w3.org/2000/svg" viewBox="585.06 39.96 247.09 203.52">
<g>
      <polygon fill="#e8336e" points="601.49 207.87 601.49 207.87 601.48 207.87 601.49 207.87"/>
      <path fill="#e7286b" d="M670.17,160.45l-9.38,7.28-31.82-37.58-38.91,71.5,11.42,6.21,29.83-54.83,27.6,32.6,21.89-16.99c-4.11-2.81-7.36-5.26-9.79-7.4-.29-.26-.57-.53-.85-.79Z"/>
      <path fill="#e7286b" d="M704.28,150.42l19.27-14.96c-3.09-2.28-6.88-4.86-11.34-7.65l-19.39,15.06c2.97,2.2,6.82,4.76,11.47,7.55Z"/>
      <path fill="#e7286b" d="M784.14,159.25l43.01-73.32-11.21-6.58-30.28,51.61-20.07-44.6-29.57,22.96c4.81,3.12,8.5,5.69,11.15,7.8l13.34-10.36,23.62,52.49Z"/>
      <path fill="#c97755" d="M734.95,178.38l-1.41-1.09,1.64-.7c7.48-3.15,12.57-6.29,15.2-9.21,4.75-5.25,7.1-11.5,7.11-18.94,0-4.93-1.09-9.47-3.27-13.67-2.18-4.19-5.61-8.3-10.3-12.3-.53-.44-1.14-.91-1.82-1.43-2.64-1.99-6.41-4.56-11.29-7.69-2.46-1.58-5.19-3.29-8.2-5.14-16.9-10.35-27.21-17.77-31.21-22.62-2.55-3.13-3.88-6.65-3.87-10.42,0-4.41,2.1-8.44,6.06-11.92,4.02-3.55,9.32-5.3,15.71-5.3,6.18,0,11.25,1.69,15.01,5.16,3.66,3.39,6.12,9.05,7.58,16.93l16.88-1.73c-1.52-10.76-5.61-18.88-12.24-24.54-6.84-5.83-16.4-8.8-28.85-8.81-10.93,0-19.55,3.11-26.08,9.28-6.56,6.23-9.77,13.43-9.78,21.84,0,4.26.94,8.24,2.82,12,1.87,3.74,5.17,7.93,9.9,12.49l1.28,1.23-1.71.51c-6.9,2.05-12.24,5.62-16.15,10.73-3.91,5.13-5.85,10.78-5.85,17.08,0,4.99,1.2,9.76,3.62,14.38,2.44,4.64,5.57,8.65,9.42,12.07,0,0,0,0,0,0,2.41,2.14,6.03,4.83,10.83,8.05,2.87,1.93,6.17,4.04,9.89,6.35,18.79,11.58,30.25,19.84,34.63,25.15,2.56,3.07,3.89,6.53,3.88,10.23.01,5.04-2.1,9.51-6.15,13.18-4.11,3.74-9.78,5.57-16.82,5.56-7.25,0-13.13-1.83-17.47-5.6-4.22-3.66-7.2-9.75-9.12-18.19l-16.32,2.36c1.59,10.85,5.94,19.23,13.05,25.35,7.32,6.28,17.25,9.46,29.96,9.47,7.21,0,13.9-1.38,20.1-4.13,6.18-2.75,10.84-6.67,14.1-11.82,3.28-5.18,4.89-10.61,4.89-16.39,0-5.26-1.28-10.15-3.86-14.76-2.57-4.6-6.5-8.94-11.81-13.01ZM726.96,171.76l-.57.32-.51-.4c-6.5-4.66-14.26-9.66-23.29-15.01-1.24-.74-2.43-1.46-3.57-2.16-4.57-2.82-8.33-5.37-11.31-7.67-2.8-2.17-4.91-4.12-6.32-5.87-3.21-4.01-4.88-8.33-4.88-12.86,0-4.01,1.25-7.72,3.69-11,2.46-3.3,6.46-6.48,11.99-9.64l.62-.35.55.45c4.45,3.61,11.3,8.28,20.53,13.97,1.23.76,2.4,1.51,3.54,2.24,4.4,2.82,8.14,5.4,11.22,7.74,3.67,2.8,6.42,5.27,8.24,7.44,3.59,4.39,5.49,8.68,5.49,12.87,0,3.52-1.33,7.08-3.88,10.63-2.58,3.6-6.44,6.69-11.54,9.32Z"/>
    </g>
</svg>
