<svg xmlns="http://www.w3.org/2000/svg" viewBox="15.73 340.05 252.00 184.77">
<g>
      <polygon fill="#f4f4f4" points="20.73 430.69 20.73 419.69 53.73 419.69 53.73 430.69 20.73 430.69 20.73 430.69"/>
      <polygon fill="#f4f4f4" points="20.73 463.68 20.73 452.68 42.73 452.68 42.73 463.68 20.73 463.68 20.73 463.68"/>
      <polygon fill="#f4f4f4" points="54.07 463.68 54.07 452.68 65.07 452.68 65.07 463.68 54.07 463.68 54.07 463.68"/>
      <polygon fill="#f4f4f4" points="20.73 496.68 20.73 485.68 42.73 485.68 42.73 496.68 20.73 496.68 20.73 496.68"/>
      <polygon fill="#f4f4f4" points="20.73 397.7 20.73 386.7 31.73 386.7 31.73 397.7 20.73 397.7 20.73 397.7"/>
      <polygon fill="#f4f4f4" points="20.73 364.7 20.73 353.7 53.73 353.7 53.73 364.7 20.73 364.7 20.73 364.7"/>
      <polygon fill="#f4f4f4" points="42.73 397.7 42.73 386.7 64.73 386.7 64.73 397.7 42.73 397.7 42.73 397.7"/>
      <polygon fill="#f4f4f4" points="64.73 364.7 64.73 353.7 75.73 353.7 75.73 364.7 64.73 364.7 64.73 364.7"/>
      <polygon fill="#f4f4f4" points="94.89 430.69 94.89 419.69 116.89 419.69 116.89 430.69 94.89 430.69 94.89 430.69"/>
      <polygon fill="#f4f4f4" points="105.89 397.7 105.89 386.7 138.9 386.7 138.9 397.7 105.89 397.7 105.89 397.7"/>
      <polygon fill="#f4f4f4" points="207.73 364.7 207.73 353.7 218.73 353.7 218.73 364.7 207.73 364.7 207.73 364.7"/>
      <polygon fill="#f4f4f4" points="166.57 430.69 166.57 419.69 199.57 419.69 199.57 430.69 166.57 430.69 166.57 430.69"/>
      <polygon fill="#f4f4f4" points="130.73 463.68 130.73 452.68 152.73 452.68 152.73 463.68 130.73 463.68 130.73 463.68"/>
      <polygon fill="#f4f4f4" points="163.73 463.68 163.73 452.68 185.73 452.68 185.73 463.68 163.73 463.68 163.73 463.68"/>
      <polygon fill="#f4f4f4" points="155.57 397.7 155.57 386.7 177.57 386.7 177.57 397.7 155.57 397.7 155.57 397.7"/>
      <polygon fill="#f4f4f4" points="229.73 430.69 229.73 419.69 240.73 419.69 240.73 430.69 229.73 430.69 229.73 430.69"/>
      <polygon fill="#f4f4f4" points="251.73 430.69 251.73 419.69 262.73 419.69 262.73 430.69 251.73 430.69 251.73 430.69"/>
      <polygon fill="#f4f4f4" points="229.73 463.68 229.73 452.68 262.73 452.68 262.73 463.68 229.73 463.68 229.73 463.68"/>
      <polygon fill="#f4f4f4" points="207.73 496.68 207.73 485.68 240.73 485.68 240.73 496.68 207.73 496.68 207.73 496.68"/>
      <polygon fill="#f4f4f4" points="251.73 496.68 251.73 485.68 262.73 485.68 262.73 496.68 251.73 496.68 251.73 496.68"/>
      <polygon fill="#f4f4f4" points="229.73 397.7 229.73 386.7 262.73 386.7 262.73 397.7 229.73 397.7 229.73 397.7"/>
      <polygon fill="#f4f4f4" points="229.73 364.7 229.73 353.7 262.73 353.7 262.73 364.7 229.73 364.7 229.73 364.7"/>
    </g>
<path fill="#951b81" d="M224.74,380.77l-9.19-9.19-23.26,23.26,3.12,4.47c5.29,7.5,12.33,22,12.27,37.33-.06,11.79-3.76,24.1-15.64,36.07-5.35,5.33-11.31,8.53-18.1,10.53-6.78,1.99-14.38,2.67-22.51,2.66-13.25.02-27.75-1.82-42.13-1.83-5.14,0-10.28.25-15.36.95l46.31-46.31c4.89,1.55,10.45.4,14.32-3.47,5.53-5.52,5.53-14.5,0-20.03-5.54-5.53-14.51-5.53-20.04,0-3.88,3.88-5.03,9.44-3.47,14.33l-46.31,46.31c.69-5.08.94-10.23.95-15.37-.01-14.38-1.85-28.88-1.84-42.13,0-8.13.68-15.73,2.66-22.51,2-6.79,5.2-12.75,10.54-18.1,11.96-11.88,24.27-15.58,36.06-15.64,15.34-.07,29.85,6.98,37.35,12.27l4.46,3.12,23.26-23.25-9.19-9.19h0l-15.71,15.7c-9.58-5.7-23.83-11.59-40.18-11.65-14.68-.06-31.03,5.14-45.25,19.45-7,6.98-11.35,15.15-13.82,23.64-2.48,8.5-3.18,17.33-3.19,26.16.01,14.38,1.85,28.88,1.84,42.13,0,8.13-.68,15.74-2.67,22.52-2,6.79-5.2,12.75-10.54,18.11h0s-9.52,9.52-9.52,9.52l9.19,9.19,9.52-9.52h0s0,0,0,0h0s.01-.01.02-.02c5.35-5.33,11.3-8.52,18.09-10.52,6.78-1.99,14.39-2.67,22.52-2.67,13.25-.02,27.75,1.82,42.13,1.83,8.83,0,17.65-.7,26.16-3.19,8.49-2.47,16.66-6.82,23.64-13.82,14.31-14.23,19.51-30.58,19.45-45.26-.05-16.34-5.94-30.58-11.64-40.16l15.71-15.71Z"/>
</svg>
