<svg xmlns="http://www.w3.org/2000/svg" viewBox="317.59 317.60 226.77 215.22">
<g>
      <path fill="#fbba00" d="M454.33,420.87c.04-.54.06-1.1.07-1.65h-.15c.04.55.06,1.1.08,1.65Z"/>
      <path fill="#fbba00" d="M517.15,431.21c.91-3.93,1.56-7.93,1.92-12h-38.13c-.05,4.13-.56,8.14-1.48,12h37.69Z"/>
      <path fill="#fbba00" d="M322.59,419.21v12h16.27c.01-4.08.35-8.09.97-12h-17.24Z"/>
      <path fill="#fbba00" d="M380.46,426.82c0-2.6.26-5.14.74-7.6h-14.3c-.96,3.85-1.48,7.87-1.51,12h15.28c-.14-1.45-.22-2.91-.22-4.4Z"/>
      <path fill="#fbba00" d="M453.82,415.62l.46-.26c-.37-4.26-1.44-8.32-3.1-12.07l-1.58.91c2.04,3.47,3.5,7.32,4.22,11.42Z"/>
      <path fill="#fbba00" d="M383.22,442.52l-14.9,8.6c1.18,3.87,2.73,7.61,4.6,11.2l15.85-9.15c-2.29-3.27-4.17-6.84-5.55-10.65Z"/>
      <path fill="#fbba00" d="M333.34,471.32l6,10.39,10.61-6.13c-1.9-3.53-3.57-7.19-5.01-10.96l-11.61,6.7Z"/>
      <path fill="#fbba00" d="M517.05,379.11l-6-10.39-36.81,21.25c1.79,3.61,3.25,7.4,4.34,11.35l38.46-22.21Z"/>
      <path fill="#fbba00" d="M368.69,511.07l10.39,6,3.69-6.39c-3.41-2.14-6.68-4.5-9.78-7.05l-4.3,7.44Z"/>
      <path fill="#fbba00" d="M481.69,339.35l-10.39-6-18.45,31.96c3.36,2.31,6.49,4.92,9.35,7.81l19.5-33.77Z"/>
      <path fill="#fbba00" d="M446.68,400l1.38-2.39c-2.33-3.51-5.23-6.61-8.56-9.17l-2.07,3.58c3.54,2.09,6.67,4.81,9.24,7.99Z"/>
      <path fill="#fbba00" d="M396.95,462.12l-10.45,18.11c2.98,2.8,6.17,5.3,9.53,7.49l11.04-19.12c-3.66-1.72-7.06-3.9-10.12-6.47Z"/>
      <path fill="#fbba00" d="M431.2,322.61h-12v31.43c4.11.18,8.12.76,12,1.67v-33.11Z"/>
      <path fill="#fbba00" d="M426.6,472.95c-2.52,0-4.99-.21-7.41-.6v24.79c3.91.78,7.93,1.19,12,1.26v-25.66c-1.52.13-3.04.21-4.59.21Z"/>
      <path fill="#fbba00" d="M419.2,527.82h12v-2.87c-4.07-.05-8.07-.36-12-.92v3.79Z"/>
      <path fill="#fbba00" d="M420.03,387.25c3.91,0,7.66.67,11.17,1.88v-5.58c-3.73-1.6-7.77-2.61-12-2.93v6.65c.28,0,.55-.02.83-.02Z"/>
      <path fill="#fbba00" d="M410.84,388.34l-4-6.93c-4.09.78-8,2.06-11.69,3.76l4.48,7.76c3.43-2.07,7.2-3.63,11.21-4.59Z"/>
      <path fill="#fbba00" d="M444.14,470.03l14.14,24.49c3.87-1.2,7.66-2.66,11.32-4.4l-14.56-25.22c-3.4,2.1-7.05,3.82-10.89,5.13Z"/>
      <path fill="#fbba00" d="M379.09,333.35l-10.39,6,13.13,22.75c3.59-1.8,7.34-3.33,11.23-4.56l-13.97-24.19Z"/>
      <path fill="#fbba00" d="M494.61,472.22c2.87-2.94,5.52-6.03,7.92-9.28l-29.1-16.8c-2.06,3.49-4.5,6.73-7.26,9.66l28.44,16.42Z"/>
      <path fill="#fbba00" d="M382.38,393.57c-3.04,2.73-5.75,5.82-8.07,9.2l10.5,6.06c1.85-3.61,4.24-6.91,7.07-9.77l-9.5-5.48Z"/>
      <path fill="#fbba00" d="M339.34,368.71l-6,10.39,17.93,10.35c2.2-3.4,4.65-6.62,7.34-9.62l-19.27-11.13Z"/>
      <path fill="#e7286b" d="M526.07,411.38c0,2.64-.11,5.25-.33,7.84-.34,4.08-.94,8.09-1.78,12-2.77,12.87-8.19,24.74-15.66,35.05-2.38,3.29-4.98,6.42-7.76,9.38-.63.67-1.26,1.33-1.91,1.98-7.45,7.44-16.13,13.64-25.71,18.25-3.62,1.74-7.38,3.25-11.24,4.52-9.21,3.03-19.05,4.67-29.29,4.68-.4,0-.79-.02-1.18-.03-.87-.01-1.74-.02-2.61-.07-3.19-.16-6.32-.55-9.39-1.1-1.2-.22-2.39-.46-3.57-.74-8.26-1.92-15.97-5.23-22.9-9.67-3.41-2.18-6.63-4.63-9.62-7.33-.95-.85-1.88-1.73-2.78-2.63-5.23-5.24-9.66-11.26-13.13-17.86-1.87-3.55-3.45-7.27-4.72-11.13-2.39-7.25-3.7-15-3.7-23.06,0-.08,0-.15,0-.22.02-4.12.48-8.13,1.32-12,1.17-5.39,3.08-10.5,5.64-15.2.86-1.58,1.79-3.11,2.79-4.59,2.27-3.39,4.91-6.51,7.83-9.34,4.51-4.36,9.72-7.99,15.46-10.7,3.65-1.73,7.52-3.07,11.54-4,4.17-.97,8.51-1.5,12.98-1.51h0c.97,0,1.92.05,2.87.11,4.18.27,8.21,1.12,12,2.46,4.21,1.49,8.14,3.58,11.66,6.19,3.34,2.47,6.31,5.39,8.85,8.67.58.75,1.15,1.52,1.69,2.31.4.59.79,1.2,1.16,1.81.89,1.46,1.68,2.97,2.4,4.53.19.41.39.83.56,1.25,1.41,3.33,2.43,6.87,3,10.55.35,2.23.53,4.52.53,6.85,0,.21-.01.41-.02.62-.08,4.23-.92,8.27-2.39,12-.68,1.73-1.5,3.39-2.44,4.97-2.11,3.54-4.83,6.66-8.01,9.23-.99.8-2.03,1.55-3.11,2.23-3.38,2.15-7.15,3.74-11.19,4.61-.88.19-1.78.34-2.69.47-1.5.2-3.03.32-4.59.32-2.57,0-5.06-.38-7.41-1.08-.72-.21-1.42-.45-2.11-.72-3.82-1.49-7.21-3.84-9.92-6.83-.37-.41-.72-.83-1.07-1.26-2.5-3.12-4.29-6.83-5.16-10.88-.08-.35-.14-.71-.2-1.07-.1-.57-.18-1.14-.24-1.72-.09-.88-.14-1.78-.14-2.68,0-2.7.55-5.26,1.53-7.6.06-.14.13-.27.19-.41.21-.46.41-.91.65-1.35,1.62-2.97,3.99-5.47,6.85-7.26.25-.16.51-.32.77-.47,1.64-.93,3.43-1.63,5.33-2.05,1.14-.26,2.31-.41,3.51-.47.28-.01.55-.04.83-.04h0c.59,0,1.16.04,1.73.11.75.09,1.49.23,2.21.44-.67-.11-1.36-.16-2.06-.18-.12,0-.25-.01-.37-.01h0c-.8,0-1.58.07-2.34.18-1.02.14-2.02.36-2.98.67-1.6.51-3.1,1.24-4.46,2.17-.48.32-.93.67-1.37,1.04-2.11,1.76-3.8,4.01-4.88,6.58-.15.35-.27.71-.39,1.07-.13.37-.24.75-.35,1.13-.1.36-.2.71-.28,1.07-.23,1.13-.35,2.31-.36,3.51,0,1.77.25,3.49.69,5.12.07.28.13.57.22.85.03.11.08.21.12.31.38,1.14.84,2.25,1.41,3.29.96,1.76,2.18,3.36,3.6,4.75.34.33.69.65,1.05.96.28.24.58.48.87.7.52.4,1.06.77,1.62,1.11,1.68,1.03,3.53,1.82,5.49,2.33.55.14,1.1.26,1.67.36,1.1.19,2.22.3,3.37.31h0c1.77,0,3.48-.2,5.14-.57.62-.14,1.23-.29,1.82-.48,2.78-.86,5.34-2.23,7.57-4,.43-.34.86-.69,1.27-1.07,2.21-2.02,4.04-4.45,5.36-7.18.08-.17.16-.34.23-.52.14-.3.27-.61.39-.91.09-.22.18-.45.27-.68.26-.72.49-1.45.69-2.2.48-1.87.74-3.84.74-5.86,0-.79-.04-1.57-.11-2.34h0c-.36-4.25-1.67-8.23-3.73-11.71-.06-.1-.11-.2-.17-.3-.2-.33-.41-.65-.62-.96-2.02-3.03-4.61-5.64-7.63-7.67-.43-.29-.87-.57-1.32-.83-.94-.56-1.92-1.06-2.93-1.51-3.42-1.51-7.19-2.35-11.17-2.36h0c-.28,0-.55.01-.83.02-1.66.04-3.29.2-4.87.48-4.11.72-7.96,2.19-11.39,4.27-1.83,1.11-3.53,2.39-5.1,3.83-2.99,2.72-5.46,6-7.29,9.65-1.11,2.23-1.98,4.6-2.56,7.08-.58,2.44-.89,4.98-.89,7.6,0,1.49.09,2.95.25,4.4.17,1.54.43,3.05.77,4.54.11.49.24.98.37,1.47.18.65.37,1.29.58,1.93,1.27,3.87,3.12,7.47,5.45,10.71,1.7,2.36,3.64,4.52,5.8,6.45,2.99,2.66,6.38,4.88,10.08,6.54,2.61,1.18,5.37,2.09,8.24,2.68.18.04.37.06.56.1,1.11.21,2.23.38,3.37.5,1.33.13,2.68.2,4.04.2,1.55,0,3.08-.08,4.59-.23,3.3-.32,6.5-.96,9.57-1.91,3.89-1.21,7.57-2.91,10.96-5.01,3.11-1.93,5.98-4.2,8.56-6.77,2.86-2.85,5.36-6.07,7.42-9.57,2.12-3.6,3.79-7.49,4.92-11.62,1.05-3.83,1.63-7.85,1.68-12,0-.21.02-.41.02-.62,0-4.78-.59-9.41-1.68-13.85-.51-2.08-1.12-4.11-1.84-6.09-.65-1.78-1.39-3.51-2.2-5.2-.03-.06-.06-.12-.09-.18-.38-.78-.78-1.56-1.19-2.32-.89-1.64-1.86-3.24-2.91-4.78-1.7-2.51-3.6-4.88-5.66-7.09-2.78-2.98-5.87-5.67-9.23-8.02-5.49-3.84-11.68-6.76-18.34-8.53-3.86-1.02-7.87-1.66-12-1.86-.95-.05-1.91-.07-2.87-.07h0c-6.9,0-13.56,1.01-19.87,2.84-3.93,1.15-7.71,2.61-11.32,4.39-.98.48-1.94.98-2.89,1.5-6.66,3.66-12.66,8.36-17.79,13.88-2.75,2.96-5.25,6.15-7.47,9.55-1.04,1.6-2.04,3.23-2.95,4.91-3.59,6.61-6.14,13.87-7.48,21.54-.68,3.9-1.05,7.91-1.07,12,0,.08,0,.15,0,.22,0,10.48,1.86,20.53,5.26,29.83,1.39,3.8,3.04,7.48,4.93,11.01,5.22,9.79,12.26,18.45,20.67,25.56,3.07,2.59,6.32,4.98,9.74,7.13,9.88,6.23,21.09,10.53,33.12,12.37,3.92.6,7.93.92,12,.98.39,0,.79.01,1.18.01,12.65,0,24.78-2.2,36.05-6.24,3.82-1.37,7.53-2.94,11.13-4.72,35.41-17.44,59.77-53.87,59.78-96.01h-13.28ZM434.21,423.49c-.02.09-.04.17-.06.26,0-.1-.01-.21-.02-.31-.02-.22-.05-.45-.08-.67h.31c-.03.25-.09.48-.15.72Z"/>
    </g>
</svg>
